<?xml version="1.0" standalone="no"?>
<!DOCTYPE svg PUBLIC "-//W3C//DTD SVG 1.1//EN" "http://www.w3.org/Graphics/SVG/1.1/DTD/svg11.dtd" >
<svg xmlns="http://www.w3.org/2000/svg">
<metadata>
Created by FontForge 20120731 at Thu Jun 15 18:49:10 2017
 By admin
</metadata>
<defs>
<font id="iconfont" horiz-adv-x="1024" >
  <font-face 
    font-family="iconfont"
    font-weight="500"
    font-stretch="normal"
    units-per-em="1024"
    panose-1="2 0 6 3 0 0 0 0 0 0"
    ascent="896"
    descent="-128"
    x-height="792"
    bbox="-4.04762 -128.67 1260.96 896.105"
    underline-thickness="0"
    underline-position="0"
    unicode-range="U+0078-E858"
  />
<missing-glyph 
 />
    <glyph glyph-name=".notdef" 
 />
    <glyph glyph-name=".notdef" 
 />
    <glyph glyph-name=".null" horiz-adv-x="0" 
 />
    <glyph glyph-name="nonmarkingreturn" horiz-adv-x="341" 
 />
    <glyph glyph-name="x" unicode="x" horiz-adv-x="1001" 
d="M281 543q-27 -1 -53 -1h-83q-18 0 -36.5 -6t-32.5 -18.5t-23 -32t-9 -45.5v-76h912v41q0 16 -0.5 30t-0.5 18q0 13 -5 29t-17 29.5t-31.5 22.5t-49.5 9h-133v-97h-438v97zM955 310v-52q0 -23 0.5 -52t0.5 -58t-10.5 -47.5t-26 -30t-33 -16t-31.5 -4.5q-14 -1 -29.5 -0.5
t-29.5 0.5h-32l-45 128h-439l-44 -128h-29h-34q-20 0 -45 1q-25 0 -41 9.5t-25.5 23t-13.5 29.5t-4 30v167h911zM163 247q-12 0 -21 -8.5t-9 -21.5t9 -21.5t21 -8.5q13 0 22 8.5t9 21.5t-9 21.5t-22 8.5zM316 123q-8 -26 -14 -48q-5 -19 -10.5 -37t-7.5 -25t-3 -15t1 -14.5
t9.5 -10.5t21.5 -4h37h67h81h80h64h36q23 0 34 12t2 38q-5 13 -9.5 30.5t-9.5 34.5q-5 19 -11 39h-368zM336 498v228q0 11 2.5 23t10 21.5t20.5 15.5t34 6h188q31 0 51.5 -14.5t20.5 -52.5v-227h-327z" />
    <glyph glyph-name="shouye" unicode="&#xe6e4;" horiz-adv-x="1029" 
d="M1001 401q22 -20 23 -44.5t-16 -41.5q-20 -17 -45.5 -16t-40.5 14q-6 4 -32 29t-62 59t-77.5 73.5t-78.5 74.5t-63.5 60.5t-34.5 31.5q-32 30 -64 29t-63 -29q-10 -9 -38 -35t-65 -61t-78 -73t-75.5 -70.5t-60 -55.5t-30.5 -28q-15 -12 -40.5 -13t-44.5 16q-20 18 -19 44
t17 42q6 6 38 35.5t76 70.5t94.5 88t94 88t75 70t36.5 35q39 37 84 38t77 -30q6 -5 25.5 -24t47.5 -46t63 -61t70.5 -68.5t70 -68t63 -61t48.5 -46.5zM447 550q26 23 62 25t64 -25q3 -3 19 -18l39 -35q22 -22 50.5 -48.5t57.5 -53.5q69 -63 154 -142v-195q0 -22 -17 -39.5
t-46 -18.5h-193v159q0 34 -32 34h-195q-18 0 -24.5 -10.5t-6.5 -23.5q0 -6 -0.5 -31.5t-0.5 -53.5v-74h-188q-29 0 -46.5 13.5t-17.5 37.5v204q84 77 152 139q29 27 57.5 53t52.5 47.5t39.5 36.5t19.5 19z" />
    <glyph glyph-name="bangongshi" unicode="&#xe6e5;" horiz-adv-x="1000" 
d="M0 -104h500v1000h-500v-1000zM312 771h126v-125h-126v125zM312 521h126v-125h-126v125zM312 271h126v-125h-126v125zM62 771h126v-125h-126v125zM62 521h126v-125h-126v125zM62 271h126v-125h-126v125zM562 584h438v-63h-438v63zM562 -104h126v250h187v-250h125v562h-438
v-562z" />
    <glyph glyph-name="wanchengyuanxing" unicode="&#xe6e7;" 
d="M527 849q-91 0 -174 -35.5t-143 -95.5t-95.5 -143t-35.5 -174t35.5 -174t95.5 -143t143 -95.5t174 -35.5t174 35.5t143 95.5t95 143t35 174t-35 174t-95 143t-143 95.5t-174 35.5zM450 189q-5 -5 -11.5 -5t-11.5 4l-141 138q-5 5 -5 11t5 11l41 42q5 4 11 4t11 -4l78 -79
q5 -4 11.5 -4t11.5 5l254 300q5 5 11.5 5.5t11.5 -4.5l41 -42q5 -4 5 -10t-4 -11z" />
    <glyph glyph-name="weibo" unicode="&#xe609;" 
d="M434 305q-3 -3 -3.5 -7.5t2.5 -6.5q8 -6 15 1q8 9 1 16q-7 5 -15 -3zM440 411q-73 -9 -120.5 -48t-42.5 -84q6 -45 62 -70.5t129 -16.5t120.5 48t41.5 84q-5 45 -61 71t-129 16zM476 233q-29 -21 -62 -19t-51 27q-17 24 -9.5 56t36.5 53t62 19t51 -27q17 -24 9.5 -56.5
t-36.5 -52.5zM423 298q-7 7 -18 5.5t-18 -9.5t-7.5 -19t7.5 -18q7 -6 17.5 -4.5t18.5 9.5q7 9 7 19.5t-7 16.5zM511.5 830q-90.5 0 -173 -35t-142.5 -95t-95 -142.5t-35 -173t35 -173t95 -142t142.5 -95t173 -35.5t173 35.5t142 95t95 142t35.5 173t-35.5 173t-95 142.5
t-142 95t-173 35zM609 538q3 9 24 4q27 -8 36 -34q3 -10 2 -16.5t-9 -9.5q-14 -4 -17 11q-6 20 -19 23q-22 5 -17 22zM445 165q-7 0 -17.5 0.5t-39.5 4.5t-53 12t-50 26.5t-38.5 43.5t-10 66.5t27.5 92.5q37 65 95.5 113.5t91.5 42.5q21 -5 26 -32t0 -52l-5 -25q2 2 5 3.5
t12 6.5t18.5 9t22.5 8.5t25 6t25 0.5t24 -7q11 -8 13 -22.5t-1.5 -25.5t-9.5 -21q56 2 87 -29q11 -12 13 -35t-10.5 -52.5t-39 -57t-81.5 -49.5t-130 -28zM708 483q-16 -2 -20 16q-4 42 -54 60q-30 8 -23 26q5 14 28 11q3 -1 8 -2.5t18 -7.5t23.5 -14.5t20 -25t11.5 -36.5
q3 -24 -12 -27zM773 485q-20 -3 -26 25q-4 42 -34 72.5t-65 37.5q-16 2 -23 4t-12 7t-4 15q2 11 9 13.5t21 1.5q5 0 13.5 -1.5t31 -10.5t41 -23t37 -44t24.5 -70q4 -26 -13 -27z" />
    <glyph glyph-name="weixin" unicode="&#xe60a;" 
d="M571 385q-8 0 -14.5 -6t-6.5 -15q0 -7 6.5 -13t14.5 -6q11 0 18.5 6t7.5 13q0 9 -7.5 15t-18.5 6zM504 483q12 0 19 7t7 19q0 11 -7 18t-19 7t-21 -7t-9 -18t9 -18.5t21 -7.5zM511.5 830q-90.5 0 -173 -35t-142 -95t-95 -142.5t-35.5 -173t35.5 -173t95 -142t142 -95
t173 -35.5t173 35.5t142.5 95t95 142t35 173t-35 173t-95 142.5t-142.5 95t-173 35zM428 272q-32 0 -72 12l-73 -37l21 62q-82 58 -82 138q0 73 60 123.5t146 50.5q75 0 134.5 -40.5t71.5 -103.5q-10 3 -19 3q-74 0 -124.5 -48t-50.5 -116q0 -20 6 -43q-6 -1 -18 -1z
M730 201l15 -52l-55 31q-53 -11 -63 -11q-73 0 -123.5 43.5t-50.5 106t50.5 106t123.5 43.5q70 0 122.5 -44t52.5 -106q0 -65 -72 -117zM360 534q-12 0 -21.5 -7t-9.5 -18t9.5 -18.5t21.5 -7.5q11 0 18.5 7t7.5 19q0 11 -7.5 18t-18.5 7zM685 385q-9 0 -15 -6t-6 -15
q0 -7 6.5 -13t14.5 -6q10 0 17.5 6t7.5 13q0 9 -7.5 15t-17.5 6z" />
    <glyph glyph-name="pengyouquan" unicode="&#xe60b;" 
d="M511.5 830q-90.5 0 -173 -35t-142 -95t-95 -142.5t-35.5 -173t35.5 -173t95 -142t142 -95t173 -35.5t173 35.5t142 95t95 142t35.5 173t-35.5 173t-95 142.5t-142 95t-173 35zM641 600q82 -54 100 -129l-123 -122q15 222 23 251zM512 635q60 0 100 -21v-180
q-143 173 -165 195q11 0 32.5 3t32.5 3zM426 621l121 -129q-221 14 -250 22q53 79 129 107zM269 320q0 11 -4 32t-4 33q0 56 22 99h179l-43.5 -36t-92 -77t-57.5 -51zM383 171q-79 54 -108 128l130 121q0 -2 -4 -56.5t-9.5 -117t-8.5 -75.5zM513 134q-56 0 -101 22v179
q143 -164 165 -193q-11 0 -32.5 -4t-31.5 -4zM598 156l-123 122q215 -14 252 -22q-56 -81 -129 -100zM741 285h-180q166 143 195 164q0 -11 3 -32t3 -31q0 -62 -21 -101z" />
    <glyph glyph-name="qq" unicode="&#xe60c;" 
d="M511.5 830q-90.5 0 -173 -35t-142 -95t-95 -142.5t-35.5 -173t35.5 -173t95 -142t142 -95t173 -35.5t173 35.5t142 95t95 142t35.5 173t-35.5 173t-95 142.5t-142 95t-173 35zM735 248q-1 0 -2.5 -0.5t-6 0t-9 3.5t-11.5 12.5t-13 23.5q-7 -20 -18 -41.5t-17 -24.5
q29 -8 37 -24q2 -4 -1 -6q5 -7 3.5 -17t-6.5 -20t-24 -18t-49 -10q-47 -3 -96 31h-28q-4 -5 -11.5 -11t-35.5 -14t-61 -1q-34 5 -52.5 21t-2.5 39q-3 3 -0.5 9t11 12.5t18.5 9.5q-30 30 -33 60q-18 -32 -38 -37q-10 1 -12.5 29t10.5 67t41 61q-3 4 -2.5 21t7.5 26q-3 3 1 12
t12 11q1 1 -0.5 10t2 24.5t7.5 33.5t17 37t29.5 34t45.5 25t65 10q33 1 60.5 -8t45 -23t30.5 -33t19.5 -35.5t10.5 -33.5t5 -25t1 -12q8 -7 13 -28t-1 -37q10 -11 20.5 -27.5t20 -41t9.5 -48t-11 -46.5z" />
    <glyph glyph-name="qzone" unicode="&#xe60d;" 
d="M511.5 830q-90.5 0 -173 -35t-142 -95t-95 -142.5t-35.5 -173t35.5 -173t95 -142t142 -95t173 -35.5t173 35.5t142 95t95 142t35.5 173t-35.5 173t-95 142.5t-142 95t-173 35zM787 452q-1 -4 -6.5 -10.5t-10.5 -10.5l-5 -5l-116 -106l4 -21q-87 0 -137 2q-33 2 -30 12
q2 5 12 11q72 54 122 83q14 8 20 13.5t3 8t-7.5 4t-16.5 2.5q-5 1 -7 1q-56 5 -112.5 2.5t-98 -6.5t-44.5 -6q143 -8 183 -11q20 -1 20 -5q0 -1 -17 -11q-3 -2 -4 -3q-3 -2 -43 -30t-73.5 -53t-27.5 -27q121 -18 259 4l42 6l-39 -20l20 -112q0 -1 0.5 -3t1.5 -7.5t1 -9.5v-8
t-1 -6q-2 -2 -11.5 1.5t-17.5 8.5l-8 4l-131 78l-138 -81q-2 -1 -6 -3.5t-12 -6t-11 -1.5q-2 1 -1.5 8.5t2.5 16.5l1 8l28 157l-115 104l-2.5 2.5t-6 5t-7.5 7t-5 7.5t-2 6q1 3 12 5t21 3l11 1l147 18l64 129q14 32 20 32q3 1 8 -6.5t8 -15.5l4 -7l66 -132l163 -20z" />
    <glyph glyph-name="fuzhilianjie" unicode="&#xe60e;" 
d="M511.5 830q-90.5 0 -173 -35t-142 -95t-95 -142.5t-35.5 -173t35.5 -173t95 -142t142 -95t173 -35.5t173 35.5t142 95t95 142t35.5 173t-35.5 173t-95 142.5t-142 95t-173 35zM453 163q-34 -33 -81.5 -33t-81.5 33.5t-34 81t34 81.5l115 115q34 34 81.5 34t81.5 -34
q2 -1 3 -3q2 -1 2 -2q3 -3 5 -6v-0.5v-0.5v0q10 -18 -4.5 -32.5t-32.5 -4.5q-1 -1 -12 10v0q-18 18 -42.5 18t-42.5 -17l-115 -116q-18 -17 -18 -42t18 -43v0q18 -17 42.5 -17t42.5 17l69 70q39 -19 77 -1zM733 444l-115 -116q-34 -33 -81.5 -33t-81.5 33q-2 2 -3 4
q-2 1 -2 2q-3 3 -5 6v0v0v0q-10 18 4.5 32.5t32.5 5.5q1 0 12 -11v0q18 -17 42.5 -17t42.5 17l115 116q18 17 18 42t-18 42v0q-18 18 -42.5 18t-42.5 -18l-69 -69q-39 19 -77 1l107 107q34 34 81.5 34t81.5 -33.5t34 -81.5t-34 -81z" />
    <glyph glyph-name="duanxin" unicode="&#xe60f;" 
d="M511.5 830q-90.5 0 -173 -35t-142 -95t-95 -142.5t-35.5 -173t35.5 -173t95 -142t142 -95t173 -35.5t173 35.5t142 95t95 142t35.5 173t-35.5 173t-95 142.5t-142 95t-173 35zM512 193q-37 0 -72 9q-28 -24 -65 -37q-15 -6 -31 -8q34 22 38 66q-56 28 -89 75.5t-33 104.5
q0 86 73.5 147.5t178 61.5t178 -61.5t73.5 -148t-73.5 -148t-177.5 -61.5z" />
    <glyph glyph-name="wode" unicode="&#xe614;" 
d="M931 375q0 113 -56 209.5t-152.5 153t-210.5 56.5t-210.5 -56.5t-152.5 -153t-56 -209.5q0 -89 35 -167.5t97 -137.5v0l10 -10q1 0 2.5 -1.5t2.5 -1.5q12 -10 23 -19q1 0 2 -1t2.5 -2l1.5 -1q14 -10 26 -17q1 -1 2.5 -2t2.5 -1q14 -9 28 -15q1 -1 1.5 -1h0.5
q15 -8 33 -14l1 -0.5l1 -0.5q16 -6 33 -11q1 0 2 -0.5l1 -0.5q17 -5 34 -8h4q17 -4 34 -5h1.5h2.5q19 -2 35 -2t35 2h2.5h1.5q17 1 34 5h2h2l34 8l1.5 0.5l1.5 0.5q17 5 33 11l2 1q18 6 33 14h1q15 7 30 16q0 1 1.5 1.5l1.5 0.5q13 8 27 18l6 4q11 9 24 19q0 1 1.5 2t2.5 2
l10 9v0q62 59 97 137.5t35 167.5zM122 375q0 106 52 195.5t142 142t196 52.5t196 -52.5t142 -142t52 -195.5q0 -82 -32.5 -155.5t-89.5 -127.5q-43 41 -120 62q-28 12 -34 17l-6 6q-14 14 -16 27v60q20 24 36 77q11 4 19.5 15.5t12.5 25.5q7 32 -6 47q17 63 14.5 113.5
t-23.5 78.5q-23 30 -62 30q-3 2 -6 7q-9 12 -22.5 17.5t-45.5 5.5h-5q-85 0 -127 -50q-54 -65 -30 -203q-11 -16 -5 -45q5 -29 27 -41q18 -53 40 -77q2 -55 0 -64q-2 -12 -14 -24q-10 -10 -39 -22q-81 -22 -124 -63q-57 54 -89.5 127.5t-32.5 155.5zM754 69q-10 -8 -19 -14
q-1 -1 -2.5 -2t-2.5 -1q-10 -8 -24 -15l-2 -1.5t-3 -1.5q-13 -7 -26 -13l-4 -2q-14 -7 -28 -11q0 -1 -0.5 -1h-0.5q-30 -10 -61 -16q-1 0 -2 -0.5t-2 -0.5l-30 -4h-2h-2q-17 -1 -31 -1t-31 1h-4l-30 4q-1 0 -4 1q-31 6 -61 16h-0.5t-0.5 1q-13 4 -28 11q-3 1 -5 2
q-13 6 -25 13q-1 0 -6 3q-13 7 -23 14q-1 1 -3 2.5l-2 1.5q-9 7 -19 14l-1.5 1.5l-2.5 2.5q37 35 111 55q36 14 50 29q18 18 22 39q3 13 0 75v6l-4 4q-20 21 -39 77l-1 10l-11 -1q-9 5 -12 21q-2 13 0 21l9 2l-2 14q-25 132 22 188q34 40 105 40h5q24 0 32 -3t12 -9
q8 -11 18 -17l4 -2h7q26 0 40 -18q17 -24 17.5 -71.5t-15.5 -105.5l-3 -14l11 -3q2 -8 -1 -22q-2 -11 -10 -18l-12 8l-5 -19q-17 -59 -37 -79l-4 -4v-73q4 -25 25 -46l7 -7q10 -9 43 -23q71 -19 108 -54z" />
    <glyph glyph-name="wodeTabb" unicode="&#xe615;" 
d="M931 375q0 113 -56 209.5t-152.5 153t-210 56.5t-210 -56.5t-152.5 -153t-56 -209.5q0 -89 34.5 -167.5t97.5 -137.5h-1l11 -10q1 0 2.5 -1.5l1.5 -1.5q12 -10 23 -19q1 0 2 -1t2.5 -2t2.5 -1q14 -10 26 -17q1 -1 2.5 -2l1.5 -1q15 -9 29 -15q0 -1 0.5 -1h1.5
q15 -8 32 -14q1 0 1.5 -0.5l0.5 -0.5q16 -6 34 -11l1 -0.5t2 -0.5q16 -5 33 -8h4q18 -4 34 -5h2.5h1.5q19 -2 35.5 -2t35.5 2h1.5h2.5q16 1 34 5h1.5h2.5q17 4 33 8q1 0 2 0.5l1 0.5q18 5 34 11h1l1 1q17 6 33 14h1q14 7 29 16q1 1 2 1.5t2 0.5l27 18q5 4 6 4q11 9 23 19
l2 2l2 2l11 9h-1q63 59 97.5 137.5t34.5 167.5zM122 375q0 106 52.5 195.5t142.5 142t195.5 52.5t195.5 -52.5t142.5 -142t52.5 -195.5q0 -82 -32.5 -155.5t-90.5 -127.5q-43 41 -120 62q-27 12 -33 17l-6 6q-15 14 -16 27v60q20 24 36 77q10 4 19 15.5t12 25.5q7 32 -5 47
q16 63 13.5 113.5t-23.5 78.5q-22 30 -62 30q-2 2 -6 7q-9 12 -22.5 17.5t-45.5 5.5h-5q-84 0 -126 -50q-54 -65 -31 -203q-10 -16 -5 -45q6 -29 28 -41q18 -53 39 -77q2 -55 1 -64q-3 -12 -15 -24q-10 -10 -39 -22q-80 -22 -123 -63q-58 54 -90.5 127.5t-32.5 155.5z" />
    <glyph glyph-name="fuxuankuangweixuan" unicode="&#xe616;" 
d="M505 18v51q49 0 94 15l16 -49q-55 -17 -110 -17v0zM394 35q-55 18 -99 51l29 40q40 -27 86 -43zM715 87l-31 40q41 30 67 69l42 -30q-33 -45 -78 -79v0zM216 164q-35 48 -51 100l48 16q16 -48 44 -85zM852 266l-52 15q20 62 20 95l57 4v-4q0 -36 -25 -110v0zM165 374v3
q0 7 -0.5 26.5t-0.5 29t2 25t6 27.5l44 -15q-3 -9 -4.5 -18t-2 -20t-1 -17t0 -20.5t0.5 -18.5zM794 475q-15 45 -45 85l41 30q35 -46 53 -99zM255 556l-42 29q35 48 79 80l29 -41q-38 -29 -66 -68v0zM682 627q-41 29 -86 42l15 49q56 -17 101 -50zM406 668l-15 48
q52 19 110 19l1 -51q-50 0 -96 -16z" />
    <glyph glyph-name="fuxuankuangxuanzhong" unicode="&#xe617;" 
d="M512 745q-100 0 -185 -49.5t-134.5 -134.5t-49.5 -185t49.5 -185t134.5 -134t185 -49t185 49t134.5 134t49.5 185t-49.5 185t-134.5 134.5t-185 49.5v0zM494 218l-25 -29l-26 30l-142 164l46 50l116 -85l251 208l48 -51z" />
    <glyph glyph-name="shoucangb" unicode="&#xe618;" 
d="M931 479h-320l-99 309l-99 -309h-320l259 -191l-99 -308l259 190l259 -190l-99 308z" />
    <glyph glyph-name="xihuanb" unicode="&#xe61a;" 
d="M511 591q-28 65 -73 102.5t-93.5 44t-98.5 -10.5t-89.5 -53t-64.5 -92.5t-25 -121.5q-1 -49 16.5 -97.5t43 -84.5t64 -72.5t68.5 -59.5t68 -48q48 -31 90 -55t65 -34t30 -10q13 0 67 27.5t117 72.5q30 21 48 34.5t48.5 39t50.5 46t44 50.5t38 58.5t23.5 63.5t8.5 71
q0 66 -25 122.5t-64 92t-89.5 52t-99 9.5t-94.5 -45t-74 -102z" />
    <glyph glyph-name="xinxib" unicode="&#xe61c;" 
d="M512.5 828q-90.5 0 -172.5 -35.5t-142 -94.5t-95 -141.5t-35 -172.5t35 -172.5t95 -141.5t142 -94.5t172.5 -35.5t173 35.5t142.5 94.5t95 141.5t35 172.5t-35 172.5t-95 141.5t-142.5 94.5t-173 35.5zM464.5 637.5q14.5 14.5 35.5 14.5q20 0 34.5 -14.5t14.5 -35
t-14.5 -35t-35 -14.5t-35 14.5t-14.5 35t14.5 35zM603 122h-190v19h55v325h-55v17h132v-342h58v-19z" />
    <glyph glyph-name="houtui" unicode="&#xe61e;" 
d="M555 832l-448 -448l448 -448l81 80l-367 368l367 367z" />
    <glyph glyph-name="qianjin" unicode="&#xe61f;" 
d="M471 -64l448 448l-448 448l-81 -81l368 -367l-368 -368z" />
    <glyph glyph-name="shangyige" unicode="&#xe620;" 
d="M664 691l-303 -303l303 -304v607z" />
    <glyph glyph-name="xiayige" unicode="&#xe621;" 
d="M360 84l303 304l-303 303v-607z" />
    <glyph glyph-name="xiangshang" unicode="&#xe622;" 
d="M816 264l-304 303l-303 -303l55 -55l248 249l249 -249z" />
    <glyph glyph-name="xiangxia" unicode="&#xe623;" 
d="M210 512l303 -303l303 303l-54 55l-249 -249l-249 249z" />
    <glyph glyph-name="zanting" unicode="&#xe624;" 
d="M353 644h82v-512h-82v512zM589 644h82v-512h-82v512z" />
    <glyph glyph-name="guanbi" unicode="&#xe625;" 
d="M844 659l-58 58l-275 -276l-274 275l-58 -58l275 -275l-275 -275l58 -59l275 276l274 -275l58 59l-275 274z" />
    <glyph glyph-name="zengjia" unicode="&#xe626;" 
d="M941 344l1 82l-390 -1v389l-81 -1v-388l-390 -1v-81h390v-389l81 1v388z" />
    <glyph glyph-name="zhengque" unicode="&#xe627;" 
d="M970 666l-59 57l-561 -561l-237 235l-59 -58l295 -294z" />
    <glyph glyph-name="guanbihuan" unicode="&#xe628;" 
d="M664 511l-26 26l-126 -125l-125 125l-26 -27l125 -125l-125 -125l26 -27l125 126l126 -125l26 26l-125 125zM512 693q-127 0 -217 -90t-90 -217.5t90 -217.5t217 -90t217 90t90 217.5t-90 217.5t-217 90zM512 103q-117 0 -200 82.5t-83 199.5t83 200t200 83t200 -83
t83 -200t-83 -199.5t-200 -82.5z" />
    <glyph glyph-name="jinzhi" unicode="&#xe629;" 
d="M512 693q-127 0 -217 -90t-90 -217.5t90 -217.5t217 -90t217 90t90 217.5t-90 217.5t-217 90zM795 385q0 -106 -70 -186l-399 399q80 70 186 70q117 0 200 -83t83 -200zM230 385q0 107 70 187l399 -399q-80 -70 -187 -70q-117 0 -199.5 82.5t-82.5 199.5z" />
    <glyph glyph-name="tongguo" unicode="&#xe62a;" 
d="M729 525l-27 26l-280 -281l-126 125l-27 -26l152 -151zM729 603q-90 90 -217.5 90t-217.5 -90t-90 -217.5t90 -217.5t217.5 -90t217.5 90t90 217.5t-90 217.5zM311.5 185.5q-82.5 82.5 -82.5 199.5t82.5 200t200 83t200 -83t82.5 -200t-82.5 -199.5t-200 -82.5t-200 82.5
z" />
    <glyph glyph-name="zengjiahuan" unicode="&#xe62b;" 
d="M707 367l1 37h-178v177h-37v-177l-177 -1v-37h177v-177l37 1v176zM729 603q-90 90 -217.5 90t-217.5 -90t-90 -217.5t90 -217.5t217.5 -90t217.5 90t90 217.5t-90 217.5zM311.5 185.5q-82.5 82.5 -82.5 199.5t82.5 200t200 83t200 -83t82.5 -200t-82.5 -199.5t-200 -82.5
t-200 82.5z" />
    <glyph glyph-name="caidan" unicode="&#xe62c;" 
d="M438 542h148v213h-148v-213zM438 275h148v213h-148v-213zM438 9h148v213h-148v-213z" />
    <glyph glyph-name="dianhuab" unicode="&#xe62d;" 
d="M512 829q-91 0 -173.5 -35t-142 -94t-94.5 -141.5t-35 -173t35 -173.5t94.5 -143t142 -95t173.5 -35t173.5 35t142 95t94.5 143t35 173.5t-35 173t-94.5 141.5t-142 94t-173.5 35v0zM649 285q-150 -213 -306 -166l-50 38l-2 21l91 124l19 2l49 -34q5 -3 10 -4.5t11 0
t10 3t11.5 7t11.5 8.5t14 12t16 13q30 27 72 100q3 8 8 21t7 18.5t4.5 14.5t1.5 14t-3.5 11t-8.5 10l-51 36l-2 20l87 127l22 6l52 -36q9 -9 18 -25.5t13.5 -50t-1 -73t-31.5 -97.5t-73 -120z" />
    <glyph glyph-name="dingwei" unicode="&#xe62f;" 
d="M513 758q-100 0 -185 -49.5t-134.5 -134.5t-49.5 -186q0 -100 49.5 -184.5t134.5 -134t185 -49.5t184.5 49.5t133.5 134t49 184.5q0 101 -49 186t-133.5 134.5t-184.5 49.5v0zM556 86q1 3 1 11v76q0 18 -13 31t-31 13q-19 0 -31.5 -13t-12.5 -31v-76q0 -8 1 -11
q-104 15 -176.5 89t-84.5 176q9 -3 16 -3h76q18 0 31.5 13t13.5 31t-13.5 31.5t-31.5 13.5h-76q-7 0 -15 -3q14 100 86.5 171.5t173.5 87.5q-1 -4 -1 -12v-74q0 -19 12.5 -31.5t31.5 -12.5q18 0 31 13t13 31v74q0 8 -1 12q100 -16 172 -87t87 -171q-10 2 -13 2h-76
q-18 0 -31 -13.5t-13 -31.5t13 -31t31 -13h76q4 0 14 2q-13 -101 -85.5 -175t-174.5 -89z" />
    <glyph glyph-name="dongzuob" unicode="&#xe630;" 
d="M720 514h-11v-78q43 -10 71 -44.5t28 -79.5v-128q0 -54 -37 -91.5t-91 -37.5h-342q-53 0 -90.5 37.5t-37.5 91.5v128q0 41 25 74.5t62 45.5v82q-64 -2 -108 -48t-44 -110v-210q0 -66 45 -112t111 -46h419q66 0 112.5 46.5t46.5 111.5v210q0 64 -47 111t-112 47v0z
M762 658q-7 7 -18 7l-209 64q-14 5 -26.5 -2t-15.5 -20q-6 -14 2 -26l18 -61q-39 -6 -73 -19.5t-60 -35.5t-40.5 -50.5t-11 -66.5t25 -82t70.5 -99.5t123 -115.5l-45 60q-125 179 -76 256q29 45 118 49l21 -68q4 -14 16 -20.5t26 -3.5q5 2 10 7q3 0 8 8l142 172q10 10 8 24
t-13 23z" />
    <glyph glyph-name="fenxiang" unicode="&#xe633;" 
d="M717 255q-34 0 -68 -21l-224 114l221 112q32 -22 71 -22q48 0 82.5 33.5t34.5 81.5t-34.5 81.5t-83 33.5t-83 -33.5t-34.5 -81.5q0 -1 0.5 -2t0.5 -2l-221 -113q-34 23 -71 23q-49 0 -84 -33.5t-35 -80.5q0 -49 35 -83t84 -34q42 0 77 29l215 -110q0 -1 -0.5 -3.5
t-0.5 -4.5q0 -47 34.5 -81t83 -34t83 34t34.5 81q0 48 -34.5 82t-82.5 34z" />
    <glyph glyph-name="luyin" unicode="&#xe634;" 
d="M511 252q74 0 126.5 52t52.5 126v150q0 74 -52.5 126t-126.5 52t-126 -52t-52 -126v-150q0 -74 52 -126t126 -52v0zM790 467v1q0 13 -10.5 23t-24.5 10t-24 -10t-10 -23q0 -7 2 -10v-26q0 -87 -62 -149.5t-149.5 -62.5t-150.5 62.5t-63 149.5v29l1.5 2.5t1.5 4.5
q0 13 -10.5 23t-24 10t-23 -10t-9.5 -23v-1v-47q0 -106 69 -184t173 -93v-65h-93q-13 0 -23.5 -10.5t-10.5 -24.5t10 -24t24 -10h252q16 0 25 9.5t9 24.5q0 14 -9.5 24.5t-24.5 10.5h-93v65q105 13 176.5 91.5t71.5 185.5v47z" />
    <glyph glyph-name="paizhao" unicode="&#xe635;" 
d="M868 650h-59v60h-60v-60h-297q0 22 -18 41t-43 19h-119q-23 0 -41 -19t-18 -41h-59q-25 0 -42.5 -17t-17.5 -42v-473q0 -25 17.5 -42.5t42.5 -17.5h714q26 0 43.5 17.5t17.5 42.5v473q0 25 -17.5 42t-43.5 17v0zM237 450q-19 0 -31.5 12.5t-12.5 31t12.5 31.5t31.5 13
q17 0 30 -13.5t13 -31.5t-13 -30.5t-30 -12.5v0zM586 122q-94 0 -161 66.5t-67 160.5q0 93 66.5 159t161.5 66q94 0 160.5 -66t66.5 -159t-67 -160t-160 -67v0zM586 499q-62 0 -106.5 -44t-44.5 -106t44.5 -105.5t106 -43.5t105.5 43.5t44 105.5t-44 106t-105 44v0zM546 269
q-30 25 -30 65q0 36 26 62t62 26q40 0 69 -30q-49 -6 -84.5 -40.5t-42.5 -82.5z" />
    <glyph glyph-name="ditubiaodianb" unicode="&#xe63b;" 
d="M790 655q0 81 -57.5 138.5t-138.5 57.5q-83 0 -141 -57t-58 -139q0 -72 45 -127.5t112 -67.5v-352q-35 -5 -57 -15t-22 -23q0 -17 35 -28.5t85 -11.5q49 0 84 11.5t35 28.5q0 13 -22 23t-57 15v352q68 12 112.5 67.5t44.5 127.5zM533 655q-24 0 -41.5 17.5t-17.5 41.5
t17.5 42t41.5 18t42.5 -18t18.5 -42t-18.5 -41.5t-42.5 -17.5z" />
    <glyph glyph-name="ditubiaodian" unicode="&#xe63c;" 
d="M511 -48q13 14 35.5 39t79.5 95.5t100.5 133.5t79.5 138.5t36 126.5q0 89 -44.5 165.5t-120.5 121t-166 44.5q-89 0 -165 -44.5t-120 -121t-44 -165.5q0 -140 246 -437zM511 597q45 0 77 -33t32 -79q0 -44 -32 -76.5t-77 -32.5t-78 32.5t-33 76.5q0 45 33 78.5t78 33.5z
" />
    <glyph glyph-name="haofangbaob" unicode="&#xe63d;" 
d="M957 384l-198 102l68 213l-213 -68l-102 198l-102 -198l-213 68l68 -213l-198 -102l198 -102l-68 -213l213 68l102 -198l102 198l213 -68l-68 213zM619 394q39 0 61 4v-43q-26 4 -61 4h-62l-22 -34v-28h84q32 0 61 5v-44q-33 6 -61 6h-84v-58q0 -45 3 -65h-53q5 30 5 65
v58h-86q-27 0 -59 -6v44q28 -5 59 -5h86v28l-23 34h-63q-33 0 -59 -4v43q22 -4 59 -4h41l-90 138q-24 37 -35 50h62q7 -19 29 -53l101 -164l101 163q23 38 28 54h63q-13 -14 -36 -50l-90 -138h41z" />
    <glyph glyph-name="huodong" unicode="&#xe63e;" 
d="M869 758h-62v25q0 20 -14 34t-33 14t-33 -14t-14 -34v-25h-402v25q0 20 -14 34t-33 14t-33 -14t-14 -34v-25h-62q-20 0 -34 -14t-14 -34v-726q0 -20 14 -34t34 -14h714q20 0 34 14t14 34v726q0 20 -14 34t-34 14zM742 783q0 8 5 13.5t13 5.5t13 -5.5t5 -13.5v-92
q0 -7 -5 -12.5t-13 -5.5t-13 5.5t-5 12.5v92zM246 783q0 8 5 13.5t13 5.5t13 -5.5t5 -13.5v-92q0 -7 -5 -12.5t-13 -5.5t-13 5.5t-5 12.5v92v0zM888 -16q0 -8 -5.5 -13.5t-13.5 -5.5h-714q-8 0 -13.5 5.5t-5.5 13.5v558h752v-558v0zM888 571h-752v139q0 8 5.5 13.5t13.5 5.5
h62v-38q0 -19 14 -33t33 -14t33 14t14 33v38h402v-38q0 -19 14 -33t33 -14t33 14t14 33v38h62q8 0 13.5 -5.5t5.5 -13.5v-139zM295 132q0 -5 4 -9t10 -4h167q5 0 9 4t4 9.5t-4 9.5t-9 4h-151q0 14 16.5 29t40 30t47 32.5t40 43t16.5 54.5q0 39 -24.5 62.5t-67.5 23.5
q-68 0 -87 -58q-1 -2 -1 -4q0 -6 4 -10t10 -4q8 0 12 9q19 40 62 40q30 0 46.5 -16.5t16.5 -42.5t-16.5 -48t-40 -37.5t-47.5 -31t-40.5 -37.5t-16.5 -49zM526 202q0 -44 27.5 -67t74 -23t74 23t27.5 67q0 59 -51 78q38 21 38 64q0 38 -24 57.5t-65 19.5t-64.5 -19.5
t-23.5 -57.5q0 -43 38 -64q-51 -19 -51 -78zM568 344q0 50 59.5 50t59.5 -50q0 -25 -16 -38.5t-44 -13.5t-43.5 13.5t-15.5 38.5zM627.5 266q72.5 0 72.5 -64q0 -32 -19.5 -47.5t-53 -15.5t-53 15.5t-19.5 47.5q0 64 72.5 64z" />
    <glyph glyph-name="renqun" unicode="&#xe640;" 
d="M516 354q41 27 64.5 69t23.5 92q0 82 -59 142t-139 60q-81 0 -138 -59.5t-57 -142.5q0 -49 21.5 -91.5t57.5 -69.5q-95 -35 -154.5 -115.5t-59.5 -179.5h662q0 100 -61 180.5t-161 114.5v0zM647 515q0 -43 -17 -84t-47 -69q92 -45 144.5 -126t52.5 -177h168q0 80 -49 146
t-126 93q29 22 47.5 59t18.5 71q0 69 -46 116t-115 47q-24 0 -42 -7q1 -5 4 -19.5t5 -26.5t2 -23z" />
    <glyph glyph-name="shijian" unicode="&#xe641;" 
d="M511 753q-100 0 -185 -49.5t-134 -134.5t-49 -185t49 -185t134 -134.5t185 -49.5t185 49.5t134.5 134.5t49.5 185t-49.5 185t-134.5 134.5t-185 49.5v0zM562 329l-189 -186l-66 67l151 149v327h104v-357z" />
    <glyph glyph-name="youhui" unicode="&#xe642;" 
d="M310 538h176v-61h-176v61zM526 450h185v-61h-185v61zM310 450h176v-61h-176v61zM66 829v-890h892v890h-892zM226 69l-37 29q31 30 50 58t39 74l39 -21q-22 -48 -42 -78.5t-49 -61.5zM531 64q-115 0 -141 11q-20 9 -20 39v62q0 9 0.5 20t0.5 17t-2 10h53q-3 -11 -3 -42
v-58q0 -6 3 -9.5t15.5 -5.5t32.5 -2.5t60 -0.5q91 0 107 11q8 5 11.5 17.5t5.5 42.5q21 -13 46 -18q-3 -25 -6 -38.5t-11 -25.5t-16.5 -17t-29.5 -8.5t-43 -4t-63 -0.5zM461 235l32 24q55 -42 95 -83l-34 -28q-40 47 -93 87zM796 75q-49 79 -107 138l36 22q65 -64 109 -132z
M830 617q-10 1 -33 -1t-37 -2h-234v-48h152q16 0 29.5 1.5t20 2.5t16.5 3t14 3l-2.5 -17.5t-2.5 -22.5t-1 -30v-69q0 -18 6 -78q-8 1 -79 1h-153v-46q82 2 164 6q-16 15 -34 28l35 16q64 -44 121 -100l-32 -29q-24 26 -51 52q-141 -10 -459 -21q-37 -1 -56 -4l-8 50
q37 -3 89 -3q12 0 191 3v48h-133q-76 0 -85 -1q2 21 2 78v67q0 50 -2 72q47 -10 83 -10h135v48h-216q-12 0 -39 2t-37 1v50q2 -1 18.5 -5t30 -6t27.5 -2h218q0 31 -5 60h53q-4 -21 -5 -60h229q16 0 28.5 2.5t24.5 6t17 4.5v-50zM526 538h185v-61h-185v61z" />
    <glyph glyph-name="zhaopian" unicode="&#xe643;" 
d="M874 68h-724q-21 0 -34.5 14t-13.5 34v532q0 20 13.5 34t34.5 14h724q20 0 34 -14t14 -34v-532q0 -20 -14.5 -34t-33.5 -14v0zM766 600h-532q-15 0 -26 -11t-11 -25v-387q0 -5 2 -7l120 141q1 2 4 4.5t11 6t16.5 3t20 -10t21.5 -28.5q24 -51 47 -55.5t48 32.5l144 142
q2 2 4.5 5.5t10.5 9.5t16 8t19.5 -3t22.5 -20l97 -111v270q0 14 -10.5 25t-24.5 11v0zM329 381q-34 0 -58.5 25t-24.5 61q0 35 24.5 59t58.5 24q36 0 61 -24t25 -59q0 -36 -25 -61t-61 -25z" />
    <glyph glyph-name="ditujiaotong" unicode="&#xe644;" 
d="M764 406q0 17 -2 44t-12 81.5t-26 74.5q-15 18 -32.5 30.5t-26.5 16t-27 8.5q-6 2 -27 3l28 64q5 11 -5.5 15.5t-15.5 -5.5l-32 -73q-81 3 -149 0l-32 73q-5 10 -15 5.5t-6 -15.5l29 -65q-9 -1 -13 -2q-3 0 -15 -3l-16 -4t-14.5 -5t-16.5 -9t-16 -13.5t-19 -20.5
q-18 -21 -29 -71.5t-13 -90.5l-3 -40l-5 -257q0 -7 5 -11.5t11 -4.5h6q-1 0 -1 -4v-32q0 -12 8.5 -19.5t19.5 -7.5h56q11 0 18.5 7.5t7.5 19.5v32v4h257q-2 0 -2 -4v-32q0 -11 8.5 -19t19.5 -8h56q11 0 19 7.5t8 19.5v32q0 4 -1 4h6q6 0 11 4.5t5 11.5zM373 618q0 10 9 16.5
t22 6.5h216q12 0 20.5 -6.5t8.5 -16.5v-1h-276v1zM366 193q-19 0 -32.5 14t-13.5 33t13.5 32.5t32.5 13.5t32.5 -13.5t13.5 -32.5t-13.5 -33t-32.5 -14zM658 193q-19 0 -32.5 14t-13.5 33t13.5 32.5t32.5 13.5t32.5 -13.5t13.5 -32.5t-13.5 -33t-32.5 -14zM667 379h-312
q-20 0 -31 14t-11 36l20 106q0 20 15.5 35.5t34.5 15.5h258q19 0 34.5 -15.5t15.5 -35.5l20 -106q0 -21 -11.5 -35.5t-32.5 -14.5z" />
    <glyph glyph-name="dituloupan" unicode="&#xe645;" 
d="M810 542l-137 46q-11 11 -22 0l-131 -43v90q0 9 -7 13h1l-138 62q-11 11 -22 0l-138 -62h-1q-9 -5 -9 -13v-546q0 -6 5.5 -11t12.5 -5h282q4 0 7 2q4 -2 8 -2h282q14 0 14 16v440q0 9 -7 13zM329 144h-56v57h56v-57zM329 274h-56v58h56v-58zM329 404h-56v57h56v-57z
M329 536h-56v56h56v-56zM453 144h-56v57h56v-57zM453 274h-56v58h56v-58zM453 404h-56v57h56v-57zM453 536h-56v56h56v-56zM626 144h-56v57h56v-57zM626 274h-56v58h56v-58zM626 404h-56v57h56v-57zM751 144h-57v57h57v-57zM751 274h-57v58h57v-58zM751 404h-57v57h57v-57z
" />
    <glyph glyph-name="ditushenghuo" unicode="&#xe646;" 
d="M845 517h-666q-14 0 -23 -8.5t-9 -21.5v-75q0 -14 9.5 -23.5t22.5 -9.5h15l51 -274q0 -13 8 -22.5t19 -9.5h480q11 0 18.5 9.5t7.5 22.5l52 274h15q13 0 22 9.5t9 23.5v75q0 13 -9 21.5t-22 8.5zM420 170q0 -12 -8 -20.5t-20 -8.5t-20.5 8.5t-8.5 20.5v194q0 12 8.5 20
t20.5 8t20 -8t8 -20v-194zM547 170q0 -12 -8 -20.5t-20 -8.5t-20 8.5t-8 20.5v194q0 12 8 20t20 8t20 -8t8 -20v-194zM676 170q0 -12 -8 -20.5t-20 -8.5t-20.5 8.5t-8.5 20.5v194q0 12 8.5 20t20.5 8t20 -8t8 -20v-194zM512 651q62 0 112 -35t72 -91h47q-23 75 -87 122.5
t-144 47.5t-144 -47.5t-87 -122.5h47q22 56 72 91t112 35z" />
    <glyph glyph-name="dituxuexiao" unicode="&#xe647;" 
d="M925 510l-374 128q-17 7 -20.5 7t-20.5 -7l-376 -127q-17 -6 -17 -15t18 -15l89 -31q-27 -26 -34.5 -54t-8.5 -70q-26 -10 -26 -38q0 -25 23 -37q-12 -85 -78 -164q31 -24 60 -34q35 15 50 48t13.5 71t-3.5 83q17 12 17 33q0 22 -20 34q3 79 46 112q0 1 2 2l257 104
q7 3 14 0t10 -10v-1q3 -7 0 -14t-10 -10l-217 -87l194 -66q18 -6 21 -6t21 6l370 127q18 7 17.5 15.5t-17.5 15.5zM513 303l-235 79v-59q19 -18 19 -46q0 -24 -16 -42q6 -17 17 -21q102 -57 233 -55.5t245 63.5q20 16 20 32v132l-242 -83q-17 -7 -20.5 -7t-20.5 7z" />
    <glyph glyph-name="guangzhou" unicode="&#xe608;" 
d="M512 823q-91 0 -173.5 -35.5t-142 -95t-94.5 -142t-35 -173.5q0 -153 93 -272.5t237 -157.5q35 62 53 156.5t19.5 183.5t-3 171t-10.5 130t-7 50l67 28l13 130l10 -120l56 -33q-24 -105 -31.5 -207.5t-2.5 -175.5t18.5 -141.5t25.5 -104.5t25 -66q143 39 235 158t92 271
q0 91 -35 173.5t-94.5 142t-142 95t-173.5 35.5z" />
    <glyph glyph-name="shanghai" unicode="&#xe607;" 
d="M512 826q-91 0 -173.5 -35t-142 -95t-94.5 -142.5t-35 -172.5q0 -162 102.5 -285t257.5 -153l15 163q-41 16 -66.5 47t-25.5 69q0 47 37.5 82.5t93.5 43.5v195q-21 8 -34 24.5t-13 36.5q0 25 19.5 43.5t47.5 21.5v105q0 5 3 8.5t8 3.5t8 -3.5t3 -8.5v-105q29 -3 48 -21.5
t19 -43.5q0 -20 -13 -36.5t-34 -24.5v-195q56 -9 93.5 -44t37.5 -82q0 -38 -25 -69t-67 -47l15 -162q156 30 258 152.5t102 284.5q0 90 -35 172.5t-94.5 142.5t-142 95t-173.5 35z" />
    <glyph glyph-name="beijing" unicode="&#xe606;" 
d="M512 830v0v0q-91 0 -173.5 -35t-142 -94.5t-94.5 -142t-35 -173.5q0 -92 36 -176v0q25 -58 65 -107h-1q60 -72 145.5 -115.5t182.5 -46.5v0h3h2.5h1h0.5q2 -1 4 -1q1 0 2.5 0.5l1.5 0.5h1h1v0v0q91 0 173.5 35t142 94.5t95 142t35.5 173.5t-35.5 173.5t-95 142t-142 94.5
t-173.5 35zM132 209h184q4 57 4 65q1 4 -0.5 6.5t-3.5 3.5h-1q-55 10 -68 20q-7 5 -11 8.5t-7 8.5t0 8.5t12 5.5q49 9 121 38q67 29 26 43l-11.5 2.5t-21 7.5t-22.5 16q-22 17 -1 25l48 13q21 5 37 16t22.5 19.5t5.5 11.5q0 1 -2.5 1.5l-10 2t-14.5 4.5q-33 13 -30 22
q2 5 12 6q36 4 66 19t34 27q6 15 0 26q-13 28 -13 53q0 9 7.5 15.5t18 6.5t17.5 -6.5t7 -15.5q0 -25 -13 -53q-6 -11 0 -26q4 -12 34 -27t66 -19q22 -3 6 -16q-7 -6 -23 -12q-8 -3 -15.5 -4.5l-10 -2t-2.5 -1.5q0 -3 6 -11.5t22 -19.5t37 -16q52 -14 55 -17q11 -7 -7 -21
q-14 -11 -23.5 -16t-20.5 -7.5l-11 -2.5q-40 -12 13 -37q6 -3 13 -6q71 -29 120 -38q10 -2 12.5 -5.5t-0.5 -8.5t-7 -8.5t-10 -8.5t-23 -9.5t-31 -7.5l-14 -3q-1 0 -2 -0.5t-2.5 -3t-1.5 -6.5l5 -65h183q-27 -58 -70 -107h-619q-44 49 -71 107z" />
    <glyph glyph-name="xiangxiaxi" unicode="&#xe64f;" 
d="M512 198l-397 397l-51 -50l448 -448l448 448l-50 50z" />
    <glyph glyph-name="xiangshangxi" unicode="&#xe650;" 
d="M513 494l397 -397l51 50l-448 448l-448 -448l51 -50z" />
    <glyph glyph-name="jiaotongbuxing" unicode="&#xe651;" 
d="M643 220l-79 116l4 38l87 -62l23 32l-103 73l9 88l-103 53l-93 -103l-4 -150h44l1 129l41 35l-2 -144l4 -4l-96 -254l42 -8l105 216l67 -84l36 -131h50zM612 597.5q0 -20.5 -14 -35t-34.5 -14.5t-34.5 14.5t-14 35t14 35t34.5 14.5t34.5 -14.5t14 -35z" />
    <glyph glyph-name="jiaotongzijia" unicode="&#xe652;" 
d="M802 433h-45l-46 121h-369l-45 -121h-45q-15 0 -15 -9v-35q0 -5 5 -10.5t10 -5.5h23l-9 -15v-176h18v-51q0 -6 6 -12.5t12 -6.5h46q6 0 9.5 6t3.5 13v51h328v-51q0 -6 5.5 -12.5t11.5 -6.5h46q6 0 9 6t3 13v51h20v176l-5 15h23q5 0 8.5 5.5t3.5 10.5v35q0 9 -12 9z
M389 512h275l56 -159h-386zM362.5 237q-14.5 0 -24.5 10t-10 24.5t10 25t24.5 10.5t25 -10.5t10.5 -25t-10.5 -24.5t-25 -10zM690.5 237q-14.5 0 -24.5 10t-10 24.5t10 25t24.5 10.5t25 -10.5t10.5 -25t-10.5 -24.5t-25 -10z" />
    <glyph glyph-name="jiaotonggongjiao" unicode="&#xe653;" 
d="M779 388q-1 17 -2.5 44t-12 81.5t-25.5 74.5q-15 18 -32.5 30.5t-27 16t-27.5 8.5l-51 4q-82 3 -149 0q-35 -3 -38 -4q-2 0 -14.5 -3t-16 -4t-14 -5t-17 -9t-16 -14t-18.5 -20q-18 -21 -29 -71.5t-14 -90.5l-2 -40l-5 -258q0 -7 4.5 -11.5t11.5 -4.5h6q-3 0 -3 -4v-32
q0 -11 9 -19.5t20 -8.5h56q11 0 18 8.5t7 19.5v32q0 4 2 4h256q-3 0 -3 -4v-32q0 -11 9 -19.5t21 -8.5h56q10 0 17 8.5t7 19.5v32q0 4 2 4h5q7 0 11.5 4.5t4.5 11.5zM380.5 175q-19.5 0 -33 13.5t-13.5 33t13.5 33t33 13.5t33 -13.5t13.5 -33t-13.5 -33t-33 -13.5z
M672.5 175q-19.5 0 -33 13.5t-13.5 33t13.5 33t33 13.5t33 -13.5t13.5 -33t-13.5 -33t-33 -13.5zM682 359h-312q-20 0 -31.5 15t-11.5 37l21 105q0 20 15.5 35t33.5 15h259q19 0 34 -14.5t15 -35.5l21 -106q0 -21 -12 -36t-32 -15z" />
    <glyph glyph-name="yaochib" unicode="&#xe654;" 
d="M465 -64l-89 74q-27 24 -5 54l-59 49l-62 -73q-17 -21 -44 -21q-22 0 -38 13q-18 16 -20 39.5t13 41.5l392 461q-28 45 -24 100t40 97q52 61 133 61q64 0 112 -40q55 -46 61.5 -116.5t-40.5 -125.5q-51 -61 -132 -61q-32 0 -61 11l-206 -241l59 -49l4 3.5t11.5 7
t14.5 3.5q13 0 25 -10l89 -73l-50 -59l-59 49l-75 -87l59 -49l-49 -59v0v0zM702 718q-27 0 -44 -21q-16 -18 -13.5 -41.5t20.5 -38.5q16 -14 37 -14q27 0 45 21q15 18 13 41.5t-21 38.5q-16 14 -37 14v0v0z" />
    <glyph glyph-name="yaochi" unicode="&#xe655;" 
d="M471 -32l20 24l-41 34l-18 15l15 18l75 87l14 17l18 -14l41 -35l20 24l-70 59q-6 4 -10 4q-7 0 -13 -6l-14 -17l-18 14l-59 49l-18 15l15 17l206 242l10 12l15 -5q26 -10 53 -10q70 0 115 53q40 47 35 108q-5 62 -53 101q-42 35 -97 35q-71 0 -116 -53q-31 -36 -34.5 -83
t20.5 -87l8 -14l-10 -13l-392 -461q-9 -11 -8 -25t12 -23q10 -8 23 -8q16 0 27 12l62 73l15 18l17 -15l59 -49l17 -14l-14 -18q-9 -12 2 -22zM712 741q29 0 51 -19q26 -21 29 -54.5t-19 -58.5q-24 -28 -62 -28q-29 0 -51 18q-26 22 -29 55t19 58q24 29 62 29zM474 -64
l-89 74q-27 24 -4 54l-60 49l-62 -73q-17 -21 -44 -21q-21 0 -37 13q-19 16 -21 39.5t14 41.5l391 461q-27 45 -23.5 100t39.5 97q52 61 134 61q63 0 111 -40q55 -46 61.5 -116.5t-39.5 -125.5q-52 -61 -133 -61q-31 0 -61 11l-205 -241l59 -49l3.5 3.5t11 7t15.5 3.5
q12 0 24 -10l89 -73l-50 -59l-59 49l-74 -87l59 -49l-50 -59v0v0zM712 718q-27 0 -45 -21q-15 -18 -13 -41.5t20 -38.5q16 -14 37 -14q28 0 45 21q15 18 13 41.5t-20 38.5q-16 14 -37 14v0v0z" />
    <glyph glyph-name="zhaofangTab" unicode="&#xe611;" 
d="M923 361q-1 7 -11 18q-321 334 -386 401q-7 7 -12 7q-8 1 -15 -6q-58 -60 -124 -128.5t-144 -150t-123 -128.5q-6 -7 -7 -13q0 -6 4.5 -11.5t11.5 -5.5t14 7q10 9 27 27t24 25v-220v-220h660v440q1 0 20.5 -20.5t29.5 -31.5q8 -7 14 -7q7 -1 12 4.5t5 12.5zM809 -4h-297
h-297v220v219q0 2 5 8q50 52 147 153t145 151q50 -51 147.5 -152.5t145.5 -151.5q4 -6 4 -8v-439zM726 639h62v-107l28 -29v151q0 6 -4 10t-10 4h-90q-6 0 -10.5 -4t-4.5 -10v-28l14.5 -14.5l14.5 -14.5v42zM590 210q39 42 39 112q0 69 -47 117.5t-115 48.5
q-69 0 -117.5 -48.5t-48.5 -118.5q0 -68 48 -115.5t117 -47.5q62 0 102 31l131 -132q4 -4 9 -4t11 6q4 4 4.5 9.5t-3.5 9.5zM465 185q-57 0 -97.5 40.5t-40.5 98t40.5 98t97.5 40.5t97 -40.5t40 -98t-40 -98t-97 -40.5z" />
    <glyph glyph-name="zhaofangTabb" unicode="&#xe610;" 
d="M182 361v-392h660v392l-330 344zM630 328q0 -70 -40 -112l130 -132q4 -3 3.5 -9t-4.5 -10q-6 -6 -11 -6t-8 4l-132 133q-39 -31 -102 -31q-69 0 -117 47t-48 116t48.5 118t117.5 49q68 0 115.5 -49t47.5 -118zM817 660q0 6 -4.5 10t-10.5 4h-90q-6 0 -10 -4t-4 -10v-27
l119 -124v151zM337 329.5q0 -53.5 37.5 -91t90.5 -37.5t90.5 37.5t37.5 91t-37.5 91t-90.5 37.5t-90.5 -37.5t-37.5 -91zM565 329.5q0 -41.5 -29.5 -71t-70.5 -29.5t-70 29.5t-29 71t29 71t70 29.5t70.5 -29.5t29.5 -71zM923 368q-1 6 -11 17q-323 336 -386 402q-7 6 -12 6
q-8 2 -15 -6q-58 -60 -123.5 -128.5t-144 -150t-123.5 -128.5q-6 -7 -6 -12q-1 -7 4 -12.5t11 -5.5q7 0 14 7q102 106 381 397q286 -298 380 -396q8 -8 14 -8q7 0 12.5 5.5t4.5 12.5z" />
    <glyph glyph-name="haofangbaoTabb" unicode="&#xe613;" 
d="M350 720q32 -27 53 -78l3 -9h205l4 9q20 51 53 79q32 28 22 55q-7 21 -33 21q-13 0 -29 -7q-28 -12 -66 -19.5t-53 -7.5t-53.5 7.5t-66.5 19.5q-16 7 -29 7q-25 0 -33 -21q-10 -27 23 -56zM819 372q-35 84 -118 168q-41 41 -77 66l-4 3h-216l-4 -3q-35 -25 -76 -66
q-84 -84 -119 -168q-23 -51 -23 -107q0 -60 27 -115q25 -52 71 -93q96 -85 232 -85t233 85q46 41 71 93q26 55 26 115q0 56 -23 107zM616 178q-6 -4 -15 -4h-64v-18q0 -9 -7 -16.5t-18 -6.5q-11 0 -18 5q-8 5 -8 18v18h-62q-9 0 -15 5t-5 12q0 8 5.5 13t14.5 5h62v32h-62
q-9 0 -14.5 5.5t-5.5 13.5q0 7 5 13q6 6 15 6h62l1 20q-14 13 -30 31q-6 5 -22 24l-14 13q-5 5 -8.5 14.5t3.5 19.5q9 10 20.5 5.5t19.5 -10.5q3 -5 12 -14l20 -19l24 -25q16 15 29 27q11 10 22 19.5t15 13.5q8 7 18 7t17 -8q12 -14 -9 -32q-6 -5 -17 -16q-12 -13 -22 -23
q-11 -12 -28 -28v-18h59q14 0 19 -6q6 -5 6 -13t-5.5 -14t-18.5 -5l-59 -1l-1 -31h58q26 0 26 -19q1 -9 -5 -13z" />
    <glyph glyph-name="yun" unicode="&#xe65a;" 
d="M432 612q45 0 81.5 -25.5t51.5 -65.5q35 43 90 43q47 0 80.5 -32t35.5 -79h3q43 0 73.5 -30.5t30.5 -73.5t-30.5 -73.5t-73.5 -30.5q-31 0 -57 17v-11q0 -40 -28 -68t-67 -28q-28 0 -51 14.5t-35 38.5q-3 0 -5 -1q-9 -37 -39 -61.5t-69 -24.5q-46 0 -78.5 32.5
t-32.5 77.5q0 10 2 20q-17 -6 -35 -6q-43 0 -73.5 30.5t-30.5 73.5t30.5 73.5t73.5 30.5h11q-1 8 -1 16q0 59 42 101t101 42zM432 653q-37 0 -71 -14t-59 -39.5t-39 -58.5q-10 -24 -14 -49q-13 -3 -27 -9q-26 -11 -46 -31t-31 -46q-11 -27 -11 -56.5t11 -56.5t31 -47t46 -31
q25 -10 51 -11q3 -16 10 -32q11 -27 32 -48t49 -33t59 -12q26 0 51 9t44 25q14 12 25 26l6 -4q33 -21 73 -21q28 0 53 11q25 10 43.5 29t29.5 43q2 4 3 8q11 -1 23 -1q29 0 56 11q26 11 46.5 31t31.5 47t11 56.5t-11 56.5q-11 26 -31.5 46t-46.5 31q-11 5 -24 8q-3 12 -8 23
q-12 27 -33.5 47.5t-49.5 31.5q-28 12 -60 12q-18 0 -35 -4q-18 -4 -33 -12q-6 -2 -11 -5q-17 21 -39 36q-47 33 -105 33v0z" />
    <glyph glyph-name="guanli" unicode="&#xe65b;" 
d="M932 549.5q-11 11.5 -19.5 12.5t-16 -4.5t-24.5 -23.5l-10 10l-406 -408l-46 -110l105 43l412 410l-10 10q18 17 23 24.5t4 16t-12 20zM502 94l-3 -1l-22 22l1 3l384 386l24 -25zM195 660h559v-168h28v197h-616v-618h245v29h-216v560zM350 529h304v-37h-304v37zM286 530
h37v-37h-37v37zM350 416h304v-37h-304v37zM286 417h37v-37h-37v37zM350 298h191v-36h-191v36zM286 300h37v-37h-37v37zM754 100h-146v-29h174v164h-28v-135z" />
    <glyph glyph-name="shanchu" unicode="&#xe636;" 
d="M665 104h-306q-21 0 -36 13.5t-15 32.5l-34 469q0 3 1 6l1 11h472l1 -11q1 -3 1 -6l-34 -470q0 -18 -15 -31.5t-36 -13.5zM300 611l33 -461q0 -9 7.5 -15t18.5 -6h306q11 0 18.5 6t7.5 15l33 461h-424zM794 611h-565v25h565v-25zM638 611h-252v37q0 19 15 32.5t36 13.5
h150q21 0 36 -13.5t15 -32.5v-37zM410 636h204v12q0 9 -8 15t-19 6h-150q-11 0 -19 -6t-8 -15v-12zM524 193h-24v354h24v-354zM417 193l-28 353l24 2l28 -353zM607 193l-24 2l27 353l25 -2z" />
    <glyph glyph-name="luxianqidian" unicode="&#xe65d;" 
d="M65 830v-891h893v891h-893zM534 654q29 -4 69 -4h111q48 0 70 3q-3 -23 -3 -68v-80q0 -53 3 -74q-25 3 -77 3h-122v-181q0 -16 5 -20q8 -8 66 -8q86 0 101 8q12 7 16.5 32t4.5 81q22 -12 43 -19q-4 -87 -19 -114q-9 -17 -37.5 -23t-98.5 -6q-77 0 -100 12q-14 6 -18.5 16
t-4.5 34v152q0 50 -3 77q22 -2 70 -2h128v138h-137q-40 0 -67 -4v47zM826 93q-83 -4 -190 -4q-125 0 -185 12t-103 45q-41 31 -70 85q-20 -90 -54 -153q-17 17 -39 26q67 107 67 252q0 15 -2 31l45 -6q-2 -12 -3 -26q-1 -33 -6 -76q25 -51 67 -89v235h-76q-45 0 -70 -4v47
q26 -5 70 -5h73v94h-56q-39 0 -62 -4v45q19 -4 62 -4h56v29q0 45 -5 68h50q-4 -23 -4 -68v-29h48q44 0 63 4v-45q-24 4 -63 4h-48v-94h56q39 0 67 5v-47q-28 4 -66 4h-54v-97h56q37 0 57 3v-45q-26 4 -57 4h-56v-128q31 -18 77 -24.5t141 -6.5q151 0 229 11q-12 -27 -15 -49
z" />
    <glyph glyph-name="luxianzhongdian" unicode="&#xe65e;" 
d="M574 590q-3 -3 -6 -8q26 -57 77 -108q49 51 86 116h-157zM66 830v-891h892v891h-892zM255 538q33 68 62 154l45 -18q-19 -40 -24 -51q-40 -90 -75 -147q59 4 90 6q24 40 39 70l40 -22q-70 -116 -155 -220q104 19 154 30l-5 -43q-17 -4 -43 -8q-36 -6 -77 -13
q-10 -2 -35 -6q-21 -4 -48 -12l-14 47q2 1 12 4q9 2 19.5 13.5t32.5 42.5q45 60 57 80q-87 -6 -115 -16l-11 44q13 2 22 13.5t29 51.5zM433 166q-91 -28 -189 -48q-23 -5 -32 -8l-10 49h5q16 0 69 9q89 17 158 42zM764 69q-77 36 -128 53.5t-142 39.5l19 40q140 -35 271 -91
zM557 297l24 34q94 -39 173 -85l-26 -38q-68 45 -171 89zM818 309q-61 29 -97 51.5t-78 58.5q-39 -35 -76 -59t-95 -53q-11 22 -25 36q54 23 90.5 45.5t77.5 58.5q-42 44 -72 100q-35 -43 -76 -78q-12 19 -29 30q52 39 92 93.5t53 104.5l42 -14q-1 -3 -2.5 -5.5t-3.5 -6.5
t-4 -7q-11 -23 -19 -37h101q49 0 65 4l26 -27q-7 -8 -33 -52q-32 -53 -81 -104q40 -33 73.5 -52t95.5 -44q-15 -18 -25 -43z" />
    <glyph glyph-name="luxianzhongjian" unicode="&#xe65f;" 
d="M511 385zM250 384.5q0 108.5 76.5 185t185 76.5t185 -76.5t76.5 -185t-76.5 -185t-185 -76.5t-185 76.5t-76.5 185z" />
    <glyph glyph-name="suishitui" unicode="&#xe664;" 
d="M496 723v0v57l-196 -82l196 -83v62v0q88 0 163 -43.5t118.5 -118.5t43.5 -163.5t-43.5 -163.5t-118.5 -118.5t-163 -43.5t-163 43.5t-118.5 118.5t-43.5 163h-47q0 -101 50 -186.5t135.5 -135t186.5 -49.5t186.5 49.5t135.5 135t50 186.5t-50 187t-135.5 135.5
t-186.5 49.5zM691 548h-64q-5 -17 -28 -55l-103 -166l-103 167q-22 33 -29 54h-63q11 -15 35 -52l92 -141h-42q-31 0 -61 6v-45q24 5 61 5h64l23 -35v-28h-87q-35 0 -61 5v-45q34 6 61 6h87v-59q0 -40 -5 -67h55q-5 28 -5 67v59h87q28 0 61 -6v45q-26 -5 -61 -5h-87v28
l24 35h63q38 0 62 -5v45q-31 -6 -62 -6h-42l91 141q23 35 37 52z" />
    <glyph glyph-name="quxiao" unicode="&#xe666;" 
d="M512 752q-100 0 -185 -49.5t-134.5 -134.5t-49.5 -184q0 -101 49.5 -185.5t134.5 -134t185 -49.5t185 49t134.5 134t49.5 186q0 99 -49.5 184t-134.5 134.5t-185 49.5zM696 246l-46 -47l-137 138l-138 -138l-46 47l137 137l-138 139l46 46l139 -138l138 138l46 -46
l-138 -139z" />
    <glyph glyph-name="people" unicode="&#xe70d;" 
d="M928 -128q-16 0 -27 10t-11 28q0 151 -109 269q-10 10 -10 26t10 25q13 13 25 13v0q20 0 26 -13q63 -63 98.5 -146.5t35.5 -173.5q-12 -38 -38 -38zM102 -128q-15 0 -26.5 10t-11.5 28q0 186 134 320q74 74 160 103q-67 43 -107 111.5t-40 144.5q0 82 40 152.5
t109.5 112.5t151.5 42t152.5 -40.5t112.5 -111.5t42 -155q0 -129 -88.5 -215t-218.5 -86v0q-154 0 -262 -109q-53 -52 -81 -122t-28 -147q-13 -38 -39 -38zM518 358q96 0 163.5 67.5t67.5 163.5t-67.5 163t-163.5 67t-163 -67t-67 -163q-5 -91 62.5 -158.5t167.5 -72.5v0
q-9 0 0 0z" />
    <glyph glyph-name="11" unicode="&#xe639;" 
d="M922 5l-294 294q75 87 71.5 203.5t-86.5 198.5q-86 87 -209 87t-209.5 -86.5t-86.5 -209.5t86.5 -209.5t209.5 -86.5q111 0 195 74l294 -294zM404 235q-106 0 -181.5 75.5t-75.5 181.5t75.5 181t181.5 75t181 -75t75 -181t-75 -181.5t-181 -75.5z" />
    <glyph glyph-name="13" unicode="&#xe637;" 
d="M510.5 560q-72.5 0 -123.5 -51.5t-51 -124t51 -123.5t123.5 -51t124 51t51.5 123.5t-51.5 124t-124 51.5zM647 384.5q0 -56.5 -40 -96t-96 -39.5t-96 39.5t-40 96t40 96.5t96 40t96 -40t40 -96.5zM905 475h-63q-5 18 -13 37l-4 9q-7 17 -16 33l45 45q7 8 7 18t-7 17
l-94 94q-7 6 -17 6t-17 -6l-45 -46q-17 10 -36 18l-8 3q-17 7 -36 12v64q0 10 -7 17t-17 7h-132q-10 0 -17.5 -7t-7.5 -17v-64q-18 -5 -35 -12l-10 -4q-17 -7 -34 -17l-45 46q-7 6 -17.5 6t-17.5 -6l-93 -94q-7 -7 -7 -17t7 -18l45 -45q-9 -16 -18 -35l-3 -8q-7 -18 -12 -36
h-63q-11 0 -18 -7t-7 -17v-132q0 -10 7 -17.5t18 -7.5h63q5 -18 13 -37l3 -9q8 -17 17 -33l-45 -45q-7 -7 -7 -17.5t7 -17.5l93 -93q7 -7 17.5 -7t17.5 7l45 45q17 -9 33 -17l8 -3l3 -1q17 -7 35 -12v-64q0 -10 7.5 -17t17.5 -7h132q10 0 17.5 7t7.5 17v64q17 5 36 13l9 3
q18 8 34 17l45 -45q7 -7 17.5 -7t16.5 7l94 93q7 7 7 17.5t-7 17.5l-45 45q9 16 17 35l2 4l2 5q7 17 12 35h63q10 0 17.5 7.5t7.5 17.5v132q0 10 -7.5 17t-17.5 7zM891 333h-80l-5 -19q-5 -21 -13 -42l-1 -4l-2 -4q-9 -20 -20 -38l-11 -17l57 -56l-73 -73l-56 56l-17 -10
q-18 -11 -40 -21l-7 -3q-21 -8 -42 -13l-19 -4v-80h-103v80l-19 4q-21 5 -43 14l-7 3q-20 9 -38 20l-17 10l-56 -56l-73 73l56 56l-10 17q-11 18 -20 39l-4 8q-8 20 -13 41l-4 19h-80v103h80l4 19q6 21 14 43l3 8q9 19 20 38l10 16l-56 57l73 73l56 -57l17 10q18 12 39 21
l8 3q20 8 41 13l19 5v79h103v-79l19 -5q21 -5 43 -14l8 -3q20 -8 38 -20l17 -10l56 57l73 -73l-56 -57l10 -16q11 -19 20 -40l4 -8q7 -20 12 -41l5 -19h80v-103z" />
    <glyph glyph-name="14" unicode="&#xe61b;" 
d="M511 591q-28 65 -73 102.5t-93.5 44t-99 -10.5t-90 -53t-64.5 -92.5t-25 -121.5q0 -49 17.5 -97.5t43 -84.5t63.5 -72.5t68.5 -59.5t68.5 -48q47 -31 89.5 -55t65.5 -34t30 -10q13 0 67 27.5t117 72.5q29 21 47.5 34.5t49 39t50.5 46t43.5 50.5t37.5 58.5t23.5 63.5
t9.5 71q0 66 -25 122.5t-64.5 92t-89.5 52t-99 9.5t-94.5 -45t-73.5 -102zM906 455q0 -30 -7.5 -59.5t-18.5 -52t-31.5 -47.5t-36.5 -41.5t-43 -38.5t-41.5 -33t-42.5 -30q-9 -7 -13 -10q-56 -39 -102 -64.5t-58 -28.5q-12 3 -56 27.5t-106 64.5q-105 70 -154 124
q-80 88 -79 187v0q0 110 57.5 173t133.5 63q59 0 108 -38q54 -41 80 -119l13 -39l16 38q32 80 88 122q51 38 109 38q75 0 127 -59q57 -66 57 -177z" />
    <glyph glyph-name="15" unicode="&#xe632;" 
d="M898.5 771q-11.5 11 -19.5 12.5t-15.5 -4t-25.5 -23.5l-9 10l-407 -408l-46 -110l106 40l411 411l-9 12q17 17 22.5 24.5t4.5 16t-12.5 19.5zM469 316l-3 -1l-23 22l1 3l385 385l24 -24zM690 24h-539v540h451v39h-490v-618h616v488h-38v-449z" />
    <glyph glyph-name="16" unicode="&#xe63f;" 
d="M900 499q-31 73 -87.5 130t-130.5 88q-76 32 -159 33v81l-184 -106l184 -105v89q74 -1 141 -28.5t119.5 -80t80.5 -120t28 -141.5t-28 -141.5t-80.5 -120t-120 -80.5t-141.5 -28t-141.5 28t-120 80.5t-80.5 120t-28 141.5h-41q0 -84 33 -160q31 -74 87.5 -130.5
t130.5 -87.5q76 -33 159.5 -33t160.5 33q74 31 130.5 87.5t87.5 130.5q33 76 33 159.5t-33 160.5zM670 123l-187 186v215h41v-198l175 -174z" />
    <glyph glyph-name="17" unicode="&#xe631;" 
d="M666 649l-155 155l-155 -155l29 -29l105 106v-466h41v466l106 -106zM596 584v-39h181v-536h-530v536h187v39h-226v-614h608v614h-220z" />
    <glyph glyph-name="111" unicode="&#xe638;" 
d="M358 768q74 30 154.5 30t154.5 -30q76 -31 135 -89l58 58l55 -205l-205 55l63 63q-52 52 -119.5 80t-140.5 28q-74 0 -141.5 -28t-120 -80.5t-80.5 -120t-28 -141.5t28 -141.5t80.5 -120t120 -80.5t141.5 -28t141.5 28t119.5 80l29 -28q-59 -60 -136 -91
q-74 -30 -154.5 -30t-154.5 30q-77 31 -136 90.5t-90 135.5q-30 75 -30 155t30 154q31 77 90 136t136 90z" />
    <glyph glyph-name="sad23" unicode="&#xe64c;" 
d="M512 784q-109 0 -201 -53.5t-145.5 -145.5t-53.5 -201t53.5 -201t145.5 -145.5t201 -53.5t201 53.5t145.5 145.5t53.5 201t-53.5 201t-145.5 145.5t-201 53.5zM512 32q-96 0 -177 47t-128 128t-47 177t47 177t128 128t177 47t177 -47t128 -128t47 -177t-47 -177
t-128 -128t-177 -47zM714 203l-17 -17q-57 35 -94.5 49.5t-86.5 14.5t-86.5 -14.5t-95.5 -49.5l-17 17q29 42 82.5 71t116.5 29t116.5 -29t81.5 -71zM370 469zM328 468.5q0 17.5 12.5 30t30 12.5t30 -12.5t12.5 -30t-12.5 -30t-30 -12.5t-30 12.5t-12.5 30zM654 469z
M611 468.5q0 17.5 12.5 30t30 12.5t30 -12.5t12.5 -30t-12.5 -30t-30 -12.5t-30 12.5t-12.5 30z" />
    <glyph glyph-name="14052229" unicode="&#xe67a;" 
d="M819 761q29 0 49.5 -20.5t20.5 -49.5v-614q0 -29 -20.5 -49.5t-49.5 -20.5h-614q-29 0 -49.5 20.5t-20.5 49.5v614q0 29 20.5 49.5t49.5 20.5h614zM819 794h-614q-42 0 -72.5 -30.5t-30.5 -72.5v-614q0 -42 30.5 -72.5t72.5 -30.5h614q42 0 72.5 30.5t30.5 72.5v614
q0 42 -30.5 72.5t-72.5 30.5v0zM818 356l1 58h-278v277h-59v-277h-277l-1 -58h278v-279h59v279h277z" />
    <glyph glyph-name="14052230" unicode="&#xe67b;" 
d="M819 761q29 0 49.5 -20.5t20.5 -49.5v-614q0 -29 -20.5 -49.5t-49.5 -20.5h-614q-29 0 -49.5 20.5t-20.5 49.5v614q0 29 20.5 49.5t49.5 20.5h614zM819 794h-614q-42 0 -72.5 -30.5t-30.5 -72.5v-614q0 -42 30.5 -72.5t72.5 -30.5h614q42 0 72.5 30.5t30.5 72.5v614
q0 42 -30.5 72.5t-72.5 30.5v0zM819 356v58h-613l-1 -58h614z" />
    <glyph glyph-name="14052218" unicode="&#xe68b;" 
d="M512 783q-108 0 -200 -53.5t-145.5 -145.5t-53.5 -200t53.5 -200t145.5 -145.5t200 -53.5t200 53.5t145.5 145.5t53.5 200t-53.5 200t-145.5 145.5t-200 53.5zM552 93h-80v80h80v-80zM679.5 449.5q-17.5 -31.5 -69.5 -76.5q-34 -31 -44.5 -45t-15.5 -33t-6 -61h-68v21
q0 41 12 71q8 23 28 46q14 17 50.5 49t47 51.5t10.5 41.5q0 41 -32 72t-78 31q-45 0 -75 -28t-39 -88l-73 9q10 80 58.5 122.5t127.5 42.5q84 0 134 -45.5t50 -110.5q0 -38 -17.5 -69.5z" />
    <glyph glyph-name="14052319" unicode="&#xe68a;" 
d="M512 783q-108 0 -200 -53.5t-145.5 -145.5t-53.5 -200t53.5 -200t145.5 -145.5t200 -53.5t200 53.5t145.5 145.5t53.5 200t-53.5 200t-145.5 145.5t-200 53.5zM865 384q0 -96 -47 -177.5t-128.5 -128.5t-177.5 -47t-177.5 47t-128.5 128.5t-47 177.5t47 177.5
t128.5 128.5t177.5 47t177.5 -47t128.5 -128.5t47 -177.5zM472 173h80v-80h-80v80zM679.5 449.5q-17.5 -31.5 -69.5 -76.5q-34 -31 -44.5 -45t-15.5 -33t-6 -61h-68v21q0 41 12 71q8 23 28 46q14 17 50.5 49t47 51.5t10.5 41.5q0 41 -32 72t-78 31q-45 0 -75 -28t-39 -88
l-73 9q10 80 58.5 122.5t127.5 42.5q84 0 134 -45.5t50 -110.5q0 -38 -17.5 -69.5z" />
    <glyph glyph-name="daikuan" unicode="&#xe6e0;" 
d="M512 832q-91 0 -174 -35.5t-143 -95.5t-95.5 -143t-35.5 -174.5t35.5 -174.5t95.5 -143t143 -95.5t174 -35.5t173.5 35.5t142.5 95.5t95.5 143t35.5 174.5t-35.5 174.5t-95.5 143t-142.5 95.5t-173.5 35.5zM588 92q0 -8 -8 -8h-179q-7 0 -7 8v45q0 7 7 7h179q8 0 8 -7
v-45zM668 255l-76 -85q-8 -10 -18 -10h-164q-7 0 -11.5 4.5t-4.5 11.5v94l52 -55q20 -15 38 -14.5t32 13.5l82 76l-37 69q-8 14 -5 29t15 22t26.5 1t22.5 -20l50 -92q13 -25 -2 -44v0zM727 446l-81 -82q1 0 -8 15l-12 20q-12 17 -28.5 22.5t-38.5 -6.5q-19 -13 -15 -45
q1 -8 10 -25.5t17.5 -32l8.5 -14.5l-62 -62q-15 -15 -36 -15t-36 15l-150 150q-15 15 -15 36.5t15 36.5l209 209q15 15 36.5 15t36.5 -15l149 -150q15 -15 15 -36t-15 -36zM584 527l-19 -16q-11 9 -21 13q-10 5 -20 5q-9 0 -16.5 -3.5t-13.5 -9.5q-6 -7 -8 -15t-1 -15
q1 -8 4.5 -16.5t7.5 -15.5l-44 -37q-9 9 -14 16t-9 15l-15 -16q5 -6 10 -13t13 -15l-24 -19l13 -12l24 19q10 -8 20 -13t19.5 -6t18 2t15.5 11t9 16t1 16q-2 8 -5 17q-3 7 -7 16l42 35q4 -4 8 -10q5 -7 8 -12l14 14q-3 5 -8 10q-4 6 -8 10l19 16zM511 408q-1 -3 -5 -7
q-7 -8 -17 -7.5t-23 11.5l38 32q3 -6 5 -11t3 -10q0 -4 -1 -8zM514 468q-6 11 -6.5 19.5t5.5 14.5q7 7 16 7q9 -1 22 -10z" />
    <glyph glyph-name="bbgjinggaotishibudaiyuan" unicode="&#xe6e6;" 
d="M511 187q35 0 59.5 25t24.5 59v451q0 34 -24.5 59t-59.5 25t-60 -25t-25 -59v-451q0 -34 25 -59t60 -25zM511 131q-35 0 -60 -25t-25 -59.5t25 -59.5t60 -25t59.5 25t24.5 59.5t-24.5 59.5t-59.5 25z" />
    <glyph glyph-name="fonticon140423fuzhi89" unicode="&#xe604;" 
d="M528 438h160v-46h-160v46zM340 513h150v-44h-150v44zM340 438h150v-46h-150v46zM528 513h160v-44h-160v44zM856 829h-688q-42 0 -72 -30t-30 -72v-686q0 -42 30 -72t72 -30h688q42 0 72 30t30 72v686q0 42 -30 72t-72 30zM263 103l-32 25q27 26 43 50.5t34 64.5l34 -19
q-34 -73 -79 -121zM528 98q-98 0 -121 10q-16 7 -16 34v54q0 30 -4 51h46q-3 -19 -3 -46v-51q0 -11 16.5 -13.5t80.5 -2.5q79 0 93 10q13 7 15 52q19 -12 40 -16q-3 -22 -5 -33.5t-9.5 -22t-14.5 -14.5t-25.5 -7.5t-37.5 -4t-55 -0.5zM467 248l28 21q48 -37 83 -73l-29 -24
q-36 41 -82 76zM759 108q-43 69 -93 120l31 20q57 -56 95 -116zM794 580q-28 4 -66 4h-200v-38h128q53 0 73 3q-3 -25 -3 -66v-59q0 -42 3 -67q-19 3 -72 3h-129v-44q67 2 141 6q-11 9 -31 24l30 14q55 -38 105 -88l-28 -24q-20 22 -45 45q-122 -9 -399 -19q-32 -1 -49 -3
l-7 43q32 -2 78 -2q14 0 167 3v45h-117q-54 0 -73 -3q2 23 2 67v57q0 45 -2 68q17 -3 71 -3h119v38h-189q-40 0 -63 -4v44q23 -4 63 -4h190q0 27 -5 50h47q-4 -18 -5 -50h200q44 0 66 4v-44z" />
    <glyph glyph-name="fonticon140423fuzhi90" unicode="&#xe605;" 
d="M724 242q-8 -1 -15 -1q-12 0 -23 2q-20 3 -38 12q2 -19 -1 -37q-3 -20 -12 -39q9 1 18 1q12 0 23 -1q19 -4 37 -12q-3 20 1 40q3 18 10 35zM608 285l-4 10q-27 -24 -35 -60q-10 -41 10 -79l7 7q25 26 30 60q5 31 -8 62zM406 670q24 -21 45 -63h126q20 42 45 63q6 6 9 11
q-5 0 -11 -3q-25 -11 -58.5 -17t-47.5 -6t-47.5 6t-58.5 17q-7 3 -11 3q2 -5 9 -11zM691 275q9 -2 17 -2q23 0 45 9l11 5q-24 26 -59 34q-3 1 -7 2q-9 1 -18 1q-29 0 -55 -14l8 -7q26 -23 58 -28zM670 147q-8 2 -17 2q-25 0 -49 -12l-9 -3q24 -27 59 -35l8 -2q9 -1 18 -1
q30 0 57 15l-8 7q-26 24 -59 29zM856 829h-689q-42 0 -72 -30t-30 -72v-686q0 -42 30 -72t72 -30h689q42 0 72 30t30 72v686q0 42 -30 72t-72 30zM365 695q7 19 31 19q11 0 25 -5q22 -10 51.5 -15.5t41 -5.5t41.5 5.5t51 15.5q14 5 26 5q23 0 31 -19q9 -25 -20 -50
q-25 -21 -40 -60l-5 -11h-169l-4 11q-16 39 -41 60q-28 25 -19 50zM593 60q-37 -10 -76 -10q-110 0 -188 69q-37 33 -58 75q-21 45 -21 93q0 46 19 88q28 67 95 134q32 33 61 53v1l4 2h175l4 -3q29 -20 62 -53q67 -67 95 -134q4 -9 7 -18l4 -13l-12 7q-14 9 -30 14l-2 1
l-1 2q-17 39 -51 79.5t-53 56.5t-34 27h-153q-1 0 -2 -1q-29 -23 -51 -45q-63 -63 -88 -123v0q-16 -36 -16 -75q0 -83 68 -143t166 -60q25 0 50 4l2 1l2 -2q11 -10 23 -17l11 -7zM822 178q-13 -56 -61 -89q-37 -24 -79 -24v0q-14 0 -25 2q-4 0 -9 1h-1q-59 14 -91 65
t-18 110q13 56 61 88q36 25 81 25q11 0 23 -2q5 -1 9 -2q59 -13 91 -64.5t19 -109.5zM771 257q-21 -25 -26 -55q-5 -33 9 -66l4 -8q25 23 33 57q10 43 -12 81z" />
    <glyph glyph-name="4141" unicode="&#xe657;" 
d="M512 829q-91 0 -173.5 -35t-142 -94t-94.5 -141.5t-35 -173t35 -173.5t94.5 -143t142 -95t173.5 -35t173.5 35t142 95t94.5 143t35 173.5t-35 173t-94.5 141.5t-142 94t-173.5 35v0zM301 651l52 36l22 -6l87 -127l-2 -20l-51 -36q-6 -4 -8.5 -10t-3.5 -11t1.5 -14
t4.5 -14.5t7 -18.5t8 -21q42 -73 72 -100q6 -4 16 -13t14 -12t11.5 -8.5t11.5 -7t10 -3t11 0t10 4.5l49 34l19 -2l91 -124l-2 -21l-50 -38q-156 -47 -306 166q-47 62 -73 120t-31.5 97.5t-1 73t13.5 50t18 25.5z" />
    <glyph glyph-name="jingshi" unicode="&#xe6e8;" 
d="M527.5 847q-90.5 0 -173.5 -35t-142.5 -95t-95 -142.5t-35.5 -173.5t35.5 -174t95 -142.5t142.5 -95t173.5 -35.5t173.5 35.5t143 95t95 142.5t35 174t-35 173.5t-95 142.5t-143 95t-173.5 35zM527.5 105q-23.5 0 -40 17t-16.5 40.5t16.5 40t40 16.5t40 -16.5t16.5 -40
t-16.5 -40.5t-40 -17zM584 347q0 -24 -16.5 -40.5t-40 -16.5t-40 16.5t-16.5 40.5v243q0 23 16.5 40t40 17t40 -17t16.5 -40v-243z" />
    <glyph glyph-name="shouqi" unicode="&#xe6af;" 
d="M973 446h-922q-14 0 -24.5 10.5t-10.5 25.5t10.5 25.5t24.5 10.5h922q14 0 24.5 -10.5t10.5 -25.5t-10.5 -25.5t-24.5 -10.5zM973 250h-922q-14 0 -24.5 10.5t-10.5 25.5t10.5 25.5t24.5 10.5h922q14 0 24.5 -10.5t10.5 -25.5t-10.5 -25.5t-24.5 -10.5z" />
    <glyph glyph-name="8888" unicode="&#xe658;" 
d="M856 829h-689q-42 0 -72 -30t-30 -72v-686q0 -42 30 -72t72 -30h689q42 0 72 30t30 72v686q0 42 -30 72t-72 30zM825 640h-57l-341 -569h-57l-114 569h-57v57h285v-57h-57l57 -342l170 342h-56v57h227v-57z" />
    <glyph glyph-name="fonticon140801fuzhi03" unicode="&#xe66c;" 
d="M812 374q-34 82 -116 164q-40 40 -75 65l-3 2h-212l-3 -2q-35 -25 -75 -65q-82 -82 -116 -164q-23 -50 -23 -105q0 -59 26 -112q25 -51 69 -91q95 -83 228 -83t228 83q44 40 69 91q26 53 26 112q0 55 -23 105v0zM718 91q-85 -75 -206 -75t-206 75q-84 74 -84 178
q0 48 20 93v0q31 75 108 151q34 35 67 59h190q18 -13 45 -37t68 -74t62 -99v0q20 -45 20 -93q0 -104 -84 -178v0zM353 715q32 -28 52 -77l3 -9h201l3 9q20 50 52 77t22 54q-7 20 -32 20q-13 0 -29 -7q-27 -11 -64.5 -18.5t-52 -7.5t-52 7.5t-64.5 18.5q-16 7 -29 7
q-25 0 -32 -20q-10 -27 22 -54v0zM363 757q1 2 6 2q7 0 16 -4q29 -13 68 -20.5t55 -7.5t55 7.5t68 20.5q10 4 17 4q5 0 6 -2q3 -8 -14 -22q-32 -28 -53 -76h-157q-21 48 -53 76q-17 14 -14 22v0zM357 759zM658 432q0 8 -6 14t-14 6q-9 0 -16 -10l-112 -143
q-102 135 -106 140q-9 13 -17.5 13t-14 -6t-5.5 -14t5 -13v0l105 -137h-70q-15 -4 -15 -17q0 -14 15 -16h87v-36h-66q-6 0 -11 -4.5t-5 -11t5 -11.5t11 -5h66v-68v0q0 -7 4 -11.5t10.5 -4.5t11 4.5t4.5 11.5v0v68h67q6 0 10.5 5t4.5 11.5t-4.5 11t-10.5 4.5h-67v36h88
q6 0 11 5t5 11q0 13 -16 17h-70q105 130 108 135q8 10 8 15z" />
    <glyph glyph-name="xiaoxi31" unicode="&#xe600;" 
d="M822 605h-2h-615h-3q-7 0 -11.5 -5t-4.5 -12v-407q0 -7 5 -12.5t11 -5.5h3h615h2q6 0 11 5.5t5 12.5v407q0 7 -4.5 12t-11.5 5v0zM805 220l-162 164l162 165v-329v0zM780 571l-268 -271l-267 271h535v0zM219 550l163 -166l-163 -165v331v0zM245 197l161 163l94 -96
q5 -5 12 -5t12 5l95 96l161 -163h-535v0zM245 197z" />
    <glyph glyph-name="14092661coin" unicode="&#xe65c;" 
d="M745 522q0 14 -8 28l-1 2q3 7 3 15q0 39 -68.5 61t-158 22t-158.5 -22t-69 -61q0 -7 3 -15l-1 -2q-8 -14 -8 -28v-66q0 -17 12 -34l-4 -6q-8 -14 -8 -28v-67q0 -16 11 -33l-3 -4q-8 -15 -8 -29v-67q0 -44 67.5 -74.5t165.5 -30.5t165.5 30.5t67.5 74.5v67q0 14 -8 29
l-3 4q11 16 11 33v67q0 14 -8 28l-4 6q12 16 12 34v66v0zM719 321q0 -30 -59.5 -55.5t-147.5 -25.5t-147.5 25.5t-59.5 55.5v63q28 -26 83.5 -41.5t123.5 -15.5t123.5 15.5t83.5 41.5v-63v0zM305 511q27 -23 84 -35.5t123 -12.5t123 12.5t84 35.5v-55q0 -31 -59.5 -56
t-147.5 -25t-147.5 25t-59.5 56v55v0zM512 626q59 0 107 -10t71.5 -23t23.5 -25.5t-23.5 -26t-71.5 -23t-107 -9.5t-107 9.5t-71.5 23t-23.5 26t23.5 25.5t71.5 23t107 10v0zM719 188q0 -30 -59.5 -55t-147.5 -25t-147.5 25t-59.5 55v63q28 -26 83.5 -41.5t123.5 -15.5
t123.5 15.5t83.5 41.5v-63v0zM719 188z" />
    <glyph glyph-name="manager" unicode="&#xe6e3;" horiz-adv-x="1025" 
d="M340 341q20 -28 46.5 -46.5t52 -26t42 -10t30.5 -2.5h2q14 0 30.5 2.5t42 10t52 26t46.5 46.5q25 35 55 113q51 61 38 114q-6 27 -27 45q10 79 -10 135q-34 91 -119 127q-50 21 -103 21h-3h-3h-3h-3q-53 0 -103 -21q-85 -36 -119 -127q-20 -56 -10 -135q-21 -18 -27 -45
q-13 -53 38 -114q30 -78 55 -113zM321 568q21 8 36 -33q-19 58 -22 113q44 61 90 69q3 -4 10 -11t31 -24.5t52 -31t73.5 -24t94.5 -10.5q-6 -41 -19 -81q15 41 36 33q4 -1 7 -4.5t5 -10t0 -15.5t-9.5 -22.5t-22.5 -28.5q-28 -77 -51 -108.5t-56 -45t-63 -13.5h-1h-1
q-30 0 -63 13.5t-56 44.5q-10 15 -23 42t-21 47l-7 20q-15 15 -22.5 28.5t-9.5 22.5t0 15.5t5 10t7 4.5zM577 192l-30 32h-35h-35l-30 -32q17 -37 44 -51l-44 -112q33 -47 65 -59q14 6 30.5 20.5t25.5 26.5l9 12l-44 112q12 7 23 19.5t16 21.5zM975 106q-24 31 -98.5 60
t-133 43.5t-62.5 14.5q24 -136 -108 -250q-33 -28 -61 -44q-8 5 -21.5 13.5t-46.5 37.5t-56.5 61t-38.5 81.5t-6 100.5q-10 -2 -26.5 -5.5t-60.5 -16t-81 -25.5t-74 -32.5t-52 -38.5q-60 -77 -46 -176q3 -25 14.5 -38t45.5 -20h898q34 7 45.5 20t14.5 38q14 99 -46 176z" />
    <glyph glyph-name="saleicon" unicode="&#xe670;" 
d="M885 304q-10 -11 -86 -85.5t-146.5 -143.5l-70.5 -69q-4 -3 -11.5 -5.5t-27 1t-36.5 19.5q-10 9 -100.5 102.5t-177 182.5l-86.5 89q-19 19 -19 74v248q0 25 14 38q8 7 18.5 10t17.5 3h6h252q29 1 37 0q15 0 28 -5.5t18 -11.5l6 -6l358 -360l1.5 -1.5t3.5 -4t4.5 -6.5
t5 -8.5t4 -10t2 -11.5t-0.5 -12t-4.5 -13t-9.5 -14v0zM255 694q-23 0 -39.5 -16.5t-16.5 -40t16.5 -39.5t39.5 -16t39.5 16t16.5 39.5t-16.5 40t-39.5 16.5v0z" />
    <glyph glyph-name="iconfontmima" unicode="&#xe70e;" 
d="M857 450l-568 1q0 8 -0.5 40.5t-0.5 49t2.5 47t7 50t13.5 42t23 38.5q19 22 31 33.5t33.5 27t49.5 22t64 6.5q70 2 131.5 -49.5t91.5 -128.5q9 -23 18.5 -33.5t25.5 -11.5q21 0 33.5 9.5t15.5 24.5t1.5 29.5t-5.5 25.5q-87 223 -312 223q-79 0 -128 -19.5t-95 -69.5
q-22 -25 -39 -56.5t-25.5 -63t-14.5 -65.5t-7.5 -64t-2.5 -58.5t0 -48.5l-33 -1q-23 0 -39.5 -16.5t-16.5 -38.5v-468q0 -23 16.5 -39t39.5 -16h690q23 0 39.5 16t16.5 39v468q0 22 -16.5 38.5t-39.5 16.5v0v0zM825 6q0 -19 -13 -32t-32 -13h-535q-18 0 -31 13
q-13 14 -13 32v312q0 19 13 32t31 13h535q19 0 32 -13t13 -32v-312v0zM825 6z" />
    <glyph glyph-name="arrowup" unicode="&#xe6f7;" 
d="M869 491l-313 312q-18 18 -44 18t-44 -18l-313 -312q-18 -19 -18 -44.5t18.5 -44t44 -18.5t44.5 18l205 206v-599q0 -26 18.5 -44t44.5 -18t44 18t18 44v599l206 -206q19 -18 44.5 -18t44 18.5t18.5 44t-18 44.5z" />
    <glyph glyph-name="iconfontyinhang" unicode="&#xe6df;" 
d="M945 553l-440 281l-426 -281h866zM509 458q-75 0 -128 -53t-53 -128t53 -128t128 -53t128.5 53t53.5 128t-53.5 128t-128.5 53zM592 281q0 -7 -8 -7h-41q-4 0 -6 -4l-3 -6q-1 -1 -1 -3v0q0 -8 8 -8h43q8 0 8 -8v-14q0 -8 -8 -8h-43q-8 0 -8 -8v-63q0 -7 -8 -7h-31
q-8 0 -8 7v63q0 8 -8 8h-44q-7 0 -7 8v14q0 8 7 8h44q8 0 8 8q0 2 -1 3l-3 6q-2 4 -6 4h-41q-7 0 -7 7l-1 16q0 8 8 8h24q4 0 6 3.5t1 6.5l-29 66q-2 4 0.5 7.5t6.5 3.5h32q5 0 7 -5l22 -65q2 -5 7.5 -5t7.5 5l23 65q2 5 7 5h31q5 0 7 -3.5t0 -7.5l-29 -66q-1 -3 1 -6.5
t6 -3.5h18q8 0 8 -8v-16zM130 27h762v-90h-762v90zM583 40h80v43q-36 -29 -80 -43zM348 88v-48v0h88q-49 15 -88 48zM128 532v0v-69h28v-423h91v423h98q70 62 164 62t164 -62h98v-423h91v423h29v69h-763z" />
    <glyph glyph-name="23" unicode="&#xe6e9;" 
d="M512 384zM62 384q0 91 36 174.5t96 143.5t143.5 96t174.5 36t174.5 -36t143.5 -96t96 -143.5t36 -174.5t-36 -174.5t-96 -143.5t-143.5 -96t-174.5 -36t-174.5 36t-143.5 96t-96 143.5t-36 174.5z" />
    <glyph glyph-name="qunzuduoren" unicode="&#xe716;" 
d="M647 431q39 31 61.5 76t22.5 96q0 91 -64 155.5t-155 64.5t-155 -64.5t-64 -155.5q0 -51 22.5 -96t61.5 -76q-103 -41 -167 -133.5t-64 -206.5v-73q0 -15 11 -25.5t26 -10.5h658q15 0 26 10.5t11 25.5v73q0 114 -64 206.5t-167 133.5zM511.5 750q60.5 0 103.5 -43
t43 -103.5t-43 -103.5t-103.5 -43t-103 43t-42.5 103.5t42.5 103.5t103 43zM805 55h-586v36q0 121 86 207t207 86t207 -86t86 -207v-36zM267 418l2 7q0 3 1 4q0 4 -1 9v2v2.5t-0.5 1l-0.5 0.5q0 2 -2 5q-3 5 -5 9h-1l-1 1q-4 5 -11 8q-30 13 -47.5 40t-17.5 60q0 38 23.5 68
t60.5 38q15 4 22.5 17t4 27.5t-16.5 22.5t-27 5q-62 -15 -101 -65t-39 -113q0 -70 47 -123q-72 -37 -114.5 -106.5t-42.5 -152.5v-57q0 -15 10.5 -26t26 -11t26 11t10.5 26v57q0 75 46 134.5t120 77.5q20 3 28 21zM867 444q47 53 47 123q0 62 -37.5 111t-97.5 65
q-15 4 -28 -3.5t-17 -22t3.5 -27.5t22.5 -17q36 -10 58.5 -39.5t22.5 -66.5q0 -33 -17.5 -60t-47.5 -40q-7 -3 -12 -8q0 -1 -0.5 -1h-0.5q-2 -3 -5 -9q-2 -4 -2 -5l-0.5 -0.5l-1 -1t0 -2.5l0.5 -2q-1 -5 -1 -9q0 -1 1 -4l2 -7q8 -18 28 -21q73 -18 119.5 -77.5t46.5 -134.5
v-57q0 -15 10.5 -26t25.5 -11t26 11t11 26v57q0 83 -42.5 152.5t-114.5 106.5z" />
    <glyph glyph-name="circle" unicode="&#xe74b;" 
d="M512 300zM257 300.5q0 105.5 74.5 180t180.5 74.5t180.5 -74.5t74.5 -180t-74.5 -180.5t-180.5 -75t-180.5 75t-74.5 180.5z" />
    <glyph glyph-name="shenpizhong" unicode="&#xe6ea;" 
d="M508.5 833q-89.5 0 -171 -34.5t-140.5 -94t-94 -141t-35 -171t35 -171.5t94 -141t140.5 -93.5t171 -34.5t171.5 34.5t141 93.5t94 141t35 171.5t-35 171t-94 141t-141 94t-171.5 34.5zM279.5 322q-29.5 0 -50 20.5t-20.5 50t20.5 50t50 20.5t50 -20.5t20.5 -50t-20.5 -50
t-50 -20.5zM526.5 322q-29.5 0 -50 20.5t-20.5 50t20.5 50t50 20.5t50 -20.5t20.5 -50t-20.5 -50t-50 -20.5zM755.5 322q-29.5 0 -50 20.5t-20.5 50t20.5 50t50 20.5t50 -20.5t20.5 -50t-20.5 -50t-50 -20.5z" />
    <glyph glyph-name="duihuazixun" unicode="&#xe6eb;" 
d="M237.5 293q22.5 0 39 16t16.5 38.5t-16.5 38.5t-39 16t-38.5 -16t-16 -38.5t16 -38.5t38.5 -16zM420.5 293q22.5 0 38.5 16t16 38.5t-16 38.5t-38.5 16t-38.5 -16t-16 -38.5t16 -38.5t38.5 -16zM603.5 293q22.5 0 38.5 16t16 38.5t-16 38.5t-38.5 16t-38.5 -16t-16 -38.5
t16 -38.5t38.5 -16zM805 640h-768h-4.5t-8.5 -2t-11 -5.5t-9 -11t-4 -18.5v-512q0 -32 33 -36h4h109v-183l183 183h476h3.5t9 2t11 5.5t8.5 11t4 17.5v512q0 17 -9 26t-18 10zM768 128h-469l-22 -21l-58 -58v79h-146v439h695v-439zM987 823h-768q-1 0 -3.5 -0.5t-9 -2.5
t-11 -5t-8.5 -10.5t-4 -18.5v-109h73v73h695v-439h-73v-73h109h4.5t8.5 2t11 5.5t9 11t4 17.5v512q0 17 -9 26t-18 10z" />
    <glyph glyph-name="biyan" unicode="&#xe710;" 
d="M907 373q43 36 43 54q0 9 -14 0t-50.5 -34.5t-69.5 -44.5q-148 -82 -303 -82q-163 0 -328 93q-29 16 -62.5 39t-46 30t-12.5 -1q0 -13 22.5 -36.5t60.5 -48.5l-57 -77l22 -14l57 77q61 -33 146 -63l-45 -78l22 -14l51 83q85 -22 157 -25v-103h26v104q75 1 167 29l46 -83
l25 13l-45 79q95 33 167 87l50 -66l21 16zM341 257v0v0z" />
    <glyph glyph-name="pinggu" unicode="&#xe6de;" 
d="M701 125v-126q0 -17 -12 -28t-28 -11h-51q-9 -22 -24 -38q-32 -32 -76 -32t-77 32q-15 15 -24 38h-51q-17 0 -28.5 11t-11.5 28v126q-24 17 -42 36q-47 46 -72 106.5t-25 127.5q0 66 25 126.5t71.5 107t107 71.5t127 25t127 -25t106.5 -72q47 -46 72 -106.5t25 -126.5
q0 -67 -25 -127.5t-72 -106.5q-19 -19 -42 -36v0zM510 433v0q10 8 20 12q21 8 45 8q25 0 45 -8q23 -10 37 -26q7 -7 7 -16.5t-7 -16.5q-6 -7 -16 -7t-17 7q-10 10 -22 15q-11 5 -27 5q-14 0 -26 -5t-23 -15q-7 -7 -16.5 -7t-16.5 7q-11 10 -23 15t-26 5q-16 0 -27 -5
t-22 -15q-7 -7 -17 -7t-17 7q-6 7 -6 16.5t6 16.5q16 17 38 26q21 8 45 8t44 -8q9 -4 22 -12v0zM533 779v0q0 -9 -7 -16t-16.5 -7t-16.5 7t-7 16v76q0 10 7 17t16.5 7t16.5 -7t7 -17v-76v0zM722 717v0q-5 -9 -14 -11.5t-18 2.5q-8 4 -10.5 13.5t2.5 18.5l37 65
q5 8 14.5 10.5t17.5 -2.5q9 -4 11.5 -13.5t-2.5 -18.5l-38 -64v0zM855 566v0q-9 -4 -18.5 -1.5t-14.5 10.5q-4 9 -1.5 18.5t10.5 13.5l65 38q9 5 18 2.5t15 -10.5q4 -9 1.5 -18.5t-10.5 -14.5l-65 -38v0zM894 371v0q-9 0 -16 7t-7 17q0 9 7 16t16 7h76q9 0 16 -7t7 -16
q0 -10 -7 -17t-16 -7h-76v0zM831 182v0q-8 5 -10.5 14.5t1.5 17.5q6 8 15 10.5t18 -1.5l65 -38q8 -5 10.5 -14.5t-1.5 -17.5q-6 -9 -15 -11.5t-18 2.5l-65 38v0zM164 223v0q9 4 18 1.5t15 -10.5q4 -8 1.5 -17.5t-10.5 -14.5l-65 -38q-9 -5 -18 -2.5t-15 11.5q-4 8 -1.5 17.5
t10.5 14.5l65 38v0zM125 418v0q9 0 16 -7t7 -16q0 -10 -7 -17t-16 -7h-76q-9 0 -16.5 7t-7.5 17q0 9 7.5 16t16.5 7h76v0zM188 607v0q9 -4 11.5 -13.5t-2.5 -18.5q-5 -8 -14.5 -10.5t-18.5 1.5l-65 38q-9 5 -11 14.5t2 18.5q6 8 15.5 10.5t17.5 -2.5l65 -38v0zM337 740v0
q5 -9 2.5 -18.5t-11.5 -13.5q-8 -5 -17 -2.5t-14 11.5l-38 64q-5 9 -2.5 18.5t10.5 13.5q9 5 18.5 2.5t14.5 -10.5l37 -65v0zM640 180v0l2 1q23 13 45 36q74 73 74 178q0 104 -74 178t-177.5 74t-177.5 -74q-75 -74 -75 -178t75 -178q22 -23 45 -36l2 -2q60 -36 130 -36
q72 0 131 37v0zM398 83v0v-45h43q17 0 28.5 -11.5t11.5 -27.5v-1q0 -12 8 -20v0q8 -8 21 -8q11 0 20 8v0q8 9 8 20v1q0 16 11.5 27.5t28.5 11.5h43v45q-53 -19 -111.5 -19t-111.5 19v0z" />
    <glyph glyph-name="renzheng" unicode="&#xe673;" 
d="M905 297q-56 56 -135.5 56t-135.5 -56t-56 -134q0 -79 56 -135t136 -56t135.5 56t55.5 135q0 78 -56 134v0zM768 39q-19 -15 -37 0l-81 80q-12 10 -7.5 24t17.5 17.5t26 -6.5l63 -62l122 120q8 9 18.5 8.5t17.5 -8.5q9 -6 9 -17t-9 -18zM814 583h-255q-9 0 -14 -5.5
t-5 -13.5q0 -7 5.5 -13t13.5 -6h255q8 0 13.5 5.5t5.5 13.5q0 19 -19 19v0zM814 488h-255q-8 0 -13.5 -5.5t-5.5 -13.5t5 -13.5t14 -5.5h255q11 0 16 9.5t0 19t-16 9.5v0zM628 393h-69q-8 0 -13.5 -5.5t-5.5 -14.5q0 -7 5.5 -13t13.5 -6h69q11 0 16 10t0 19.5t-16 9.5v0z
M288 332q-2 -2 -7 -4.5l-7 -3.5l-8 -2l-8 -3q-22 -6 -33 -10q-38 -13 -42 -42q-5 -33 -2 -52q1 -17 7 -23q7 -7 77 -15l20 -2l20 -2l38 -2q13 -1 33 -1h10h11q8 0 12 1l41 2q15 1 41 5q13 0 22 3v135l-7 2q-5 2 -14 4.5t-13 4.5q-14 5 -21 12q-1 2 -5.5 6.5t-5.5 8.5
q-4 7 -4 15q-1 5 1 14q1 5 2 8.5t3.5 7t4 4.5t6 4.5t7.5 5.5q0 1 1 2.5t3 3.5l3 3q4 12 5 13q4 10 5 15q4 2 9 6q9 8 11 25v14l-3 8q-1 2 -3 4t-2 3q0 20 -3 39q-2 14 -8 36q-6 17 -18 34q-21 25 -63 34q-14 3 -28 3q-4 0 -11.5 -0.5t-11.5 -0.5q-8 -1 -24 -7l-23 -13
l-13 -13l-4 -4l-4 -5q-16 -23 -22 -66q-2 -24 -2 -37q-4 -4 -6 -10q-6 -14 -1 -27t13 -19q2 -2 6 -4q2 -3 5 -15l6 -13q1 -4 6 -9l15 -13q6 -6 8 -18q1 -5 1 -14q0 -20 -26 -36v0zM144 130q-19 3 -31.5 17t-12.5 32v480q0 20 14.5 34t34.5 14h725q22 0 36.5 -14t14.5 -34
v-298l8 -6l6 -6l8 -6l12 -13v346q0 27 -20 45.5t-49 18.5h-758q-27 0 -46.5 -18.5t-19.5 -45.5v-513q0 -26 17 -44.5t42 -21.5h400q-6 22 -7 33h-374z" />
    <glyph glyph-name="wuxianda674" unicode="&#xe674;" 
d="M490 531q-17 20 -30 33q-62 62 -156 62q-74 -3 -134 -55.5t-73 -125.5q-17 -83 33 -156q49 -73 133 -94q107 -27 205 62q19 18 32 45t17 52q13 85 23 110q18 45 56.5 70.5t89.5 30.5q61 4 107 -43t47 -111q2 -64 -44.5 -110.5t-109.5 -50.5h-5.5t-15 1t-22 4t-26.5 10
t-28 17.5t-27.5 28t-23.5 40.5q-8 -44 -32 -70q6 -10 28 -32q65 -61 152 -61q78 0 140 54.5t74 131.5q14 60 -15 119t-83.5 95.5t-115.5 37.5q-7 0 -12 -1q-27 0 -68 -14q-24 -10 -44.5 -24t-41.5 -37t-34.5 -59t-17.5 -81q-6 -68 -54 -117q-46 -48 -114 -43q-61 4 -103 50
q-44 46 -45 105q-3 62 42.5 107t109.5 53q11 2 41 -5q80 -16 112 -97q16 53 33 68z" />
    <glyph glyph-name="675dianhua" unicode="&#xe675;" 
d="M475 78l-274 291q-94 98 -97.5 212t84.5 198l37 34q10 10 21 11q35 7 99 -52t83 -105q23 -43 -2 -67l-37 -35q-29 -27 -30.5 -52t25.5 -54l205 -217q27 -29 53 -29.5t55 27.5l37 35q10 10 22 10q36 4 91 -46q53 -48 77 -95q21 -46 -3 -68l-37 -35q-66 -61 -143 -71
q-68 -11 -138 17.5t-128 90.5v0zM834 181q-42 45 -69 53l-33 -31q-45 -43 -92 -42t-88 45l-205 217q-41 44 -40 91q2 45 47 89l33 31q-1 22 -55.5 79t-75.5 60l-33 -32q-52 -49 -64 -112t10 -120.5t69 -104.5l274 -291q49 -52 107.5 -76.5t114.5 -16.5q63 9 115 58l33 32
q-6 26 -48 71z" />
    <glyph glyph-name="676xiaolian" unicode="&#xe676;" 
d="M579 438q15 -14 34.5 -14t34.5 14q14 15 14 35t-14.5 34t-34 14t-34.5 -14t-15 -34t15 -35v0zM396 430q16 -9 36.5 -4t29.5 22q10 18 5 37.5t-23 28.5q-18 11 -36.5 5.5t-29.5 -22.5q-9 -17 -4 -37t22 -30v0zM517 37q92 0 170 45.5t123.5 123.5t45.5 170t-45.5 170
t-123.5 123q-77 46 -170 46t-170 -46q-79 -45 -124 -123t-45 -170q-2 -90 44.5 -169t125.5 -125.5t169 -44.5v0zM722 170q-85 -85 -205 -85q-121 0 -206 85t-85 206q0 120 85 205q86 86 206 86q119 0 205 -86t86 -205q0 -120 -86 -206v0zM614 328q0 -22 -28 -56t-48 -34h-42
q-20 0 -48 34t-28 56h-48q-2 -1 -1 -12.5t1 -12.5q0 -30 43 -76q43 -45 73 -45h58q29 0 73 45q43 46 43 76q0 22 -1 25h-47z" />
    <glyph glyph-name="677qianbao" unicode="&#xe677;" 
d="M803 291h-129v102h129v50h-129q-21 0 -36.5 -15t-15.5 -35v-102q0 -20 15.5 -35t36.5 -15h129v50zM177 556h51l-4 17l537 112l30 -129h51l-32 140q-5 19 -22 29.5t-38 6.5l-536 -112q-20 -5 -31 -21t-8 -36zM794 595h-568q-21 0 -36.5 -15t-15.5 -36v-404q0 -21 15.5 -36
t36.5 -15h568q21 0 36 15t15 36v404q0 21 -15 36t-36 15v0zM794 140h-568v404h568v-404z" />
    <glyph glyph-name="678xiangyou" unicode="&#xe678;" 
d="M222 40v686l593 -344z" />
    <glyph glyph-name="679zhu" unicode="&#xe679;" 
d="M560 679q-76 0 -126 -16l-19 -5q-33 14 -46 19q-87 35 -132 26q-20 -10 -23.5 -20.5t-2.5 -27.5q1 -3 5 -9t9.5 -13t6.5 -9l15 -15l14 -13q-45 -40 -72.5 -92t-31.5 -108q-5 -15 -10.5 -17.5t-13 -2.5t-12.5 -9q-9 -9 -13 -55q-5 -42 11 -69q14 -12 48 -16.5t54 -25.5
q31 -38 75 -70q3 -3 -1 -11.5t-8 -21t1 -34.5q6 -12 45 -15t56 5q4 3 5.5 9.5t1.5 10.5t1 4q7 -2 16 -5q4 -5 2 -16.5t3 -22.5t19 -10q10 -3 66 -1q6 1 9 8.5t3.5 14t2.5 6.5q8 -1 24 -2q8 -1 24 -1q71 0 114 13q8 1 9 -4t-2 -11t-3 -12.5t7 -8.5l45 -2q45 -2 50 10
q14 10 12 50q-1 41 9 43q65 41 92 97t27 141q0 132 -103 223t-263 91v0zM285 464q-16 0 -22.5 12.5t0 25t22.5 12.5t22 -12.5t0 -25t-22 -12.5v0zM722 501q-35 14 -76 21t-68 6l-23 -1q-15 0 -21 12.5t0 25t21 12.5q75 4 146 -18l21 -7q15 -4 20 -9t5 -16q0 -10 -7 -18
t-18 -8z" />
    <glyph glyph-name="67crentou" unicode="&#xe67c;" 
d="M485 716q-13 0 -22 -6t-12 -7l-3 0.5t-6 0.5t-10.5 -0.5t-17.5 -2.5q-26 -6 -39.5 -31t-16.5 -48q-4 -36 -1 -101q3 -17 -10 -17q-9 0 -13 -17t-2 -38l2 -19q3 -4 4 -13.5t7 -15t23 -13.5q8 -19 22.5 -38t27.5 -28l11 -7v-4v-9v-12q0 -4 0.5 -13.5t0.5 -13.5l-0.5 -5.5
t-4 -14.5t-12 -19t-29 -19t-51.5 -14q-75 -11 -109 -35q-15 -10 -18 -13l-6 -6t-7.5 -8t-6.5 -7t-4 -3q-20 -20 -20 -117h706l-8 67q-8 39 -18 50q-1 0 -9 8.5t-11.5 11.5t-13.5 11t-19.5 12t-24 10.5t-33.5 10.5t-41 8q-32 4 -52.5 13.5t-27.5 22.5t-9 19.5t-2 15.5l1 4
l1 46l8 7l8 9q26 22 38 62q3 2 10.5 6.5t9 5.5l6 4t6 4.5t4 4.5t3.5 6t2 7q0 1 0.5 2t0.5 3v5v10v12q0 18 -4.5 31t-13.5 13h-2q-3 -1 -5.5 3t-0.5 10q3 11 3 44.5t-2 45.5q0 3 -1 15t-2.5 20.5t-5 19.5t-11.5 17.5t-19 8.5q-10 2 -44 2q-6 2 -23 19q-16 18 -31 18z" />
    <glyph glyph-name="67dfangzi" unicode="&#xe67d;" 
d="M710 552v156h-69v-86l-152 154v-1v1l-367 -373l59 -60l308 314l308 -314l59 60zM743 305l-137 139q-61 64 -101 104l-16 16l-247 -251v-146v-2v-85q0 -7 1 -10v-47h121v1h69v228h121v-228h70v-1h121v71h-1z" />
    <glyph glyph-name="67eqia" unicode="&#xe67e;" 
d="M126 175q0 -20 14.5 -34t34.5 -14h677q21 0 35 13.5t14 34.5v237h-775v-237zM658 264h48v46h96v-96h-144v50zM224 361h291v-50h-291v50zM224 264h191v-50h-191v50zM852 608h-677q-20 0 -34.5 -14t-14.5 -34v-43h775v43q0 19 -14.5 33.5t-34.5 14.5z" />
    <glyph glyph-name="67fxia" unicode="&#xe67f;" 
d="M163 648l686 1l-342 -594z" />
    <glyph glyph-name="680laxiang" unicode="&#xe680;" 
d="M646 -34q-11 11 -26.5 5.5t-19.5 -19t6 -26.5q13 -12 28 -7t18.5 18.5t-6.5 28.5v0zM350 -53q0 -11 8 -19.5t19 -8.5q19 0 25.5 17t-5.5 31q-13 12 -30 5t-17 -25v0zM655 591h-56l-2 198q0 11 -6.5 18t-14.5 8h-7h-140q-16 0 -22 -9.5t-3 -18.5v-3v-193h-56
q-36 0 -60 -24.5t-24 -59.5v-113h475v113q0 35 -24.5 59.5t-59.5 24.5v0zM571 759l1 -168h-142v168h141zM655 423v85v2q0 3 -2 8.5t-9 11t-19 5.5h-247q-12 0 -20.5 -7t-8.5 -15l-1 -7v-83q-18 0 -23.5 10.5t-4.5 37.5v8v28q0 23 16 39.5t40 16.5h251q24 0 40 -16.5
t16 -39.5v-28v-8v-5q0 -16 -1 -23t-7 -13.5t-20 -6.5v0zM264 86q0 -35 24 -59.5t60 -24.5h307q36 0 60 24.5t24 59.5v280h-475v-280zM320 170v112q0 24 16 40t40 16h251q24 0 40 -16t16 -40v-112v-7q0 -23 -3 -35q-3 -14 -25 -14v170v3q0 8 -7 15.5t-23 7.5h-247
q-12 0 -20.5 -6.5t-8.5 -14.5l-1 -8v-167q-18 0 -23.5 11t-4.5 38v7z" />
    <glyph glyph-name="681dian" unicode="&#xe681;" 
d="M615 421q0 -47 -33 -80.5t-81 -33.5q-46 0 -81 33q-32 35 -32 81q0 47 32 80q34 34 81 34q48 0 80 -34q34 -32 34 -80z" />
    <glyph glyph-name="682wenjian" unicode="&#xe682;" 
d="M353 509h325q14 0 23.5 9.5t9.5 23.5q0 13 -10 22.5t-23 9.5h-325q-19 0 -27 -16.5t0 -32.5t27 -16v0zM807 290v387q-2 24 -20.5 41t-43.5 18h-459q-26 -4 -42.5 -22t-16.5 -43v-34v-514v-34q0 -27 19 -46t46 -19h32h95q14 0 23.5 9.5t9.5 23.5q0 13 -9.5 22.5t-23.5 9.5
h-102l39 1q-38 0 -51 11.5t-13 48.5v-61l-1 582l-4 -7l5 -55q0 37 13 49.5t51 12.5h-21h374l-29 -1q37 0 49.5 -10t14.5 -42v-302l-127 -1h-34q-27 0 -46 -19t-19 -45v-33v-155q-4 -17 9 -30l11 -7q8 -2 12 -2q18 0 27 14l216 217l6 4q11 11 11 24q0 5 -1 7v0zM742 671v-22
v22zM581 135v56q0 36 12 47t49 13l-63 1l2 -59l-1 58h116zM353 380h325q14 0 23.5 9.5t9.5 22.5q0 14 -9.5 23.5t-23.5 9.5l-325 -1q-19 0 -27 -16t0 -32t27 -16z" />
    <glyph glyph-name="683ren" unicode="&#xe683;" 
d="M834 62q-1 0 -1 2v1l-1 6q-10 84 -61.5 152t-129.5 101q46 31 72 80t26 105q0 92 -66 158t-158 66q-93 0 -159 -66q-65 -65 -65 -158q0 -56 26 -105t72 -80q-77 -32 -128 -99t-63 -150q-1 -2 -1 -6v-5v-2v-1q0 -13 9 -22.5t23 -9.5q13 0 22.5 9.5t9.5 22.5v1
q13 92 80 155.5t160 68.5q14 -2 28 0q93 -5 161 -69t79 -155h1v-1q0 -13 9 -22.5t23 -9.5q12 0 22 9.5t10 22.5l-1 1h1zM515 349q-65 0 -112.5 47t-47.5 113t47 113t113 47t113 -47t47 -113t-47 -113t-113 -47z" />
    <glyph glyph-name="684bukaixin" unicode="&#xe684;" 
d="M654 485q0 19 -14 33.5t-34 14.5q-32 0 -44.5 -30.5t10 -53t52.5 -9.5t30 45v0zM410 436q20 0 34.5 14.5t14.5 34.5q0 21 -14 34.5t-35 13.5q-20 0 -34 -14t-14 -35q0 -20 14.5 -34t33.5 -14v0zM508 729q-92 0 -171 -46t-125 -125q-46 -77 -46 -171q0 -93 46 -172
t125 -124.5t171 -45.5q91 -2 171 45t126.5 127t44.5 170q0 139 -97 238q-96 99 -233 104h-12v0zM508 94q-121 0 -207 86t-86 207t86 207t207 86t207 -86t86 -207t-86 -207t-207 -86v0zM537 338h-58q-28 2 -74 -46t-43 -76q0 -21 1 -24h47q0 21 28 55q29 35 49 35h42
q19 0 48 -35t29 -55h49q2 2 0.5 11.5t-1.5 12.5q3 28 -43 76t-74 46z" />
    <glyph glyph-name="685wuzi" unicode="&#xe685;" 
d="M873 372l-336 335v1h-1q-9 9 -21.5 9t-21.5 -9l-4 -5l-332 -331q-8 -9 -8 -21.5t8 -21.5q10 -11 26 -9h53q22 0 28 -7.5t6 -32.5v40h-12h13v-249q4 -24 20.5 -40t40.5 -16h61q25 0 43 18t18 43v33v54v5v-1v31h1l-1 -30q3 18 9.5 24t24.5 6h52q20 -1 27 -7.5t9 -25.5
l-1 33h-16h17v-38v2v3v-12v-82q2 -24 19.5 -40t41.5 -16h61q25 0 43 18t18 43v33v212q0 18 -15 26t-30.5 0t-15.5 -26v-187v-18v11v-51v40q0 -23 -6 -30.5t-25 -8.5q-12 0 -24 7q-2 3 -4 12q-2 26 -2 41v-10v38v32q0 26 -18 43.5t-43 17.5h-30v1h-62v-1h-30q-24 0 -42 -17
t-19 -41v-81q0 -25 -5.5 -33t-24.5 -10q-17 2 -22.5 7t-8.5 20v184v32q0 26 -17.5 43.5t-43.5 17.5h-19l263 263l315 -314q9 -9 21.5 -9t21.5 9q9 7 9 21t-9 22v0zM637 76h15h-15zM332 76h15h-15zM270 280v-22v22z" />
    <glyph glyph-name="686zu" unicode="&#xe686;" 
d="M675 226v282v8v11q0 12 1 19q0 13 2 16q0 10 1 13q-2 0 -14 -1.5t-22 -1.5h-17q-6 0 -18.5 -0.5t-20.5 -0.5q-7 0 -20 0.5t-19 0.5h-18l-36 3q0 -1 1 -5.5t1 -7.5q1 -5 1 -18q0 -10 1 -17v-2v-17v-282l-29 2l-27 2v-32q3 0 7.5 1t7.5 1h4q2 0 7 0.5t9 0.5h9q11 1 39 1h12
h14h15h16h57h20q13 0 18 -1q19 0 26 -1q3 0 9.5 -0.5t8.5 -1.5v32q-4 0 -11.5 -1t-11.5 -1q-15 0 -23 -2v0zM646 226h-119v95h119v-95zM646 343h-119v89h119v-89zM646 455h-119v91h119v-91zM429 367q9 -11 23 -33l24 22l-5 5l-12 12q-9 10 -19 19q-8 9 -20 20q-7 5 -19 17
v19q28 0 41 -1l31 -2v29q-16 -2 -31 -2q-6 0 -19.5 -0.5t-21.5 -0.5v82q2 0 4 1q4 0 5 1q3 1 10 1l22 5q8 1 15 1t8 -1t4 2q2 2 -4 7l-7 8q-5 5 -13 15l-24 -10l-29 -9l-11 -2l-14 -2q-4 -1 -13 -1q-7 -1 -23 -1h-24q11 -12 12 -30l10 2l10 2l9 2l26 4v-77q-8 0 -22 0.5
t-20 0.5h-9q-6 0 -8 1h-6h-4q-3 0 -4 1v-29q3 0 7 0.5t10.5 1t11.5 0.5q13 1 39 1q-23 -93 -76 -152q3 -2 8.5 -4t7.5 -3l7 -3.5t7 -4.5q16 25 28 50q5 11 23 57v-125q0 -6 -0.5 -18.5t-0.5 -19.5l-3 -42h34l-3 42v38v137q15 -16 28 -33v0zM783 717h-547q-24 0 -41 -15.5
t-17 -38.5v-547q0 -23 17.5 -40t40.5 -17h547q23 0 38 16.5t15 40.5v547q0 24 -15 39t-38 15v0zM816 129q0 -19 -13.5 -33t-33.5 -14h-524q-20 0 -33.5 14t-13.5 33v518q0 19 13.5 33t33.5 14h524q20 0 33.5 -14t13.5 -33v-518z" />
    <glyph glyph-name="687dadian" unicode="&#xe687;" 
d="M509 40q-71 0 -135 27q-61 26 -110 75q-48 48 -75 110q-27 64 -27 135q0 67 27 135q27 62 75 110t110 75q64 27 135 27q72 0 135 -27q61 -27 109.5 -75.5t74.5 -109.5q27 -64 27 -135t-27 -135q-27 -62 -74 -110q-51 -50 -110 -75q-69 -27 -135 -27v0zM509 715
q-133 0 -232 -96q-96 -96 -96 -232t96 -232t232 -96t231.5 96t95.5 232t-95.5 232t-231.5 96v0zM359 237q-62 62 -62 150t62 150t150 62t150 -62t62 -150t-62 -150t-150 -62t-150 62z" />
    <glyph glyph-name="688" unicode="&#xe688;" 
d="M573 439q15 -15 35 -15t34 15t14 34.5t-14 34t-34 14.5t-35 -14q-14 -15 -14 -34.5t14 -34.5v0zM390 431q17 -10 37 -4.5t29 22.5q11 18 5.5 37.5t-23.5 28.5q-17 10 -36 5t-30 -22q-9 -18 -4 -37.5t22 -29.5v0zM511 38q92 0 170 45.5t123.5 123.5t45.5 170
q0 91 -45.5 169t-123.5 123q-77 46 -170 46t-170 -46q-78 -45 -123.5 -123t-45.5 -169q-2 -90 44.5 -169.5t125.5 -125.5t169 -44v0zM716 171q-85 -85 -205 -85q-121 0 -206 85t-85 206q0 120 85 204q86 86 206 86q119 0 205 -85.5t86 -204.5q0 -120 -86 -206v0zM608 329
q0 -22 -28 -56t-48 -34h-42q-20 0 -48 34t-28 56h-48q-2 -2 -1 -13t1 -12q0 -30 43 -76q44 -45 73 -45h58q30 0 73 45q43 46 43 76q0 22 -1 25h-47z" />
    <glyph glyph-name="689" unicode="&#xe689;" 
d="M849 514q-27 63 -76.5 112.5t-113.5 76.5q-67 28 -140 28t-139 -28q-64 -27 -114 -76.5t-77 -112.5q-28 -67 -28 -140q0 -74 28 -139q27 -64 77 -114q48 -48 114 -77q66 -28 139 -28t140 28q68 29 113 77q50 50 77 114q27 66 27 139t-27 140v0zM519 51q-85 -2 -160.5 42
t-120 119.5t-42.5 161.5q0 135 94 228q95 95 229 95q86 2 161.5 -42t120 -120t42.5 -161q0 -133 -94 -227q-98 -95 -230 -96v0zM664 507q-22 0 -33 -16l-4 -6q-6 -9 -6 -22q0 -29 26.5 -40t46.5 9t9 47.5t-39 27.5v0zM418 464q0 18 -13 31t-31 13q-28 0 -39 -27.5t8 -47.5
q20 -19 47.5 -8.5t27.5 39.5v0zM701 289q-6 4 -12.5 2.5t-11.5 -6.5q-27 -37 -69 -57.5t-89 -20.5q-46 0 -88.5 21t-69.5 57q-6 9 -16 7t-13.5 -10.5t1.5 -16.5q31 -43 80 -67q44 -25 106 -25q54 0 106 25q50 25 80 67q4 5 3 12.5t-7 11.5z" />
    <glyph glyph-name="68c" unicode="&#xe68c;" 
d="M844 525q-28 65 -77 115q-57 51 -115 77q-67 27 -140 27t-140 -27q-65 -27 -114.5 -77t-77.5 -115q-28 -67 -28 -140q0 -75 28 -140t77.5 -114.5t114.5 -77.5q67 -28 140 -28t140 28q68 30 115 77t77 115q27 67 27 140t-27 140v0zM368 518q19 0 33 -14t14 -34
q0 -19 -14 -33t-33 -14q-21 0 -34.5 14t-13.5 34t13.5 33.5t34.5 13.5v0zM700 269q-31 -43 -81 -67q-49 -26 -106.5 -26t-107.5 26q-49 25 -80 67q-7 10 -1.5 20t15 11t17.5 -8q33 -49 94.5 -67.5t123 0t94.5 67.5q5 7 13 8t15 -4q11 -12 4 -27v0zM690.5 437
q-14.5 -14 -34 -14t-34 14t-14.5 33.5t14.5 33.5t34 14t34 -14t14.5 -33.5t-14.5 -33.5z" />
    <glyph glyph-name="68d" unicode="&#xe68d;" 
d="M840 515q-27 63 -77 112.5t-113 76.5q-67 28 -140 28t-139 -28q-64 -27 -114 -76.5t-77 -112.5q-28 -67 -28 -140q0 -74 28 -139q27 -64 77 -114q48 -48 114 -77q66 -28 139 -28t140 28q68 29 113 77q50 50 77 114q27 66 27 139t-27 140v0zM510 52q-85 -2 -160.5 42
t-120 119.5t-42.5 161.5q0 135 94 228q95 95 229 95q86 2 161.5 -42t119.5 -120t43 -161q0 -133 -94 -227q-98 -95 -230 -96v0zM655 508q-22 0 -33 -16l-4 -6q-6 -9 -6 -22q0 -29 26.5 -40t46.5 9t9 47.5t-39 27.5v0zM409 465q0 18 -13 31t-31 13q-28 0 -39 -27.5t8 -47.5
q20 -19 47.5 -8.5t27.5 39.5v0zM682 268h-344q-11 0 -15 -9t0 -17.5t15 -8.5h344q10 0 14.5 8.5t0 17.5t-14.5 9z" />
    <glyph glyph-name="68e" unicode="&#xe68e;" 
d="M849 492q-29 65 -78 114.5t-114 77.5t-140 28q-73 0 -140 -28q-65 -28 -115 -77.5t-76 -114.5q-28 -66 -28 -139q0 -76 28 -140q27 -66 76.5 -115.5t114.5 -76.5q67 -28 140.5 -28t139.5 28q66 27 115 77q54 57 77 115q28 66 28 140q0 75 -28 139v0zM420 437
q0 -19 -13.5 -33t-34.5 -14q-20 0 -33.5 13.5t-13.5 33.5t14 34t33 14q21 0 34.5 -13.5t13.5 -34.5v0zM689 198h-344q-11 0 -16 9.5t0 19.5t16 10h344q8 0 13.5 -6t5.5 -14.5t-5.5 -13.5t-13.5 -5v0zM662 390q-32 0 -44.5 30t9.5 51q23 23 52.5 10.5t29.5 -44.5
q0 -20 -13.5 -33.5t-33.5 -13.5z" />
    <glyph glyph-name="68f" unicode="&#xe68f;" 
d="M857 514q-27 63 -76.5 112.5t-113.5 76.5q-67 28 -140 28t-139 -28q-64 -27 -114 -76.5t-77 -112.5q-28 -67 -28 -140q0 -74 28 -139q27 -64 77 -114q48 -48 114 -77q66 -28 139 -28t140 28q68 29 113 77q50 50 77 114q28 66 28 139t-28 140v0zM527 51q-86 0 -160.5 42.5
t-119.5 117.5q-43 74 -43 163t43 161q45 76 119.5 119t160.5 43q86 2 161.5 -42t120 -120t42.5 -161q0 -133 -94 -227q-97 -95 -230 -96v0zM672 507q-22 0 -33 -16l-4 -6q-6 -9 -6 -22q0 -29 27 -40t46 9q20 20 9 47.5t-39 27.5v0zM382 421q18 0 31 12.5t13 30.5t-13 31
t-31 13t-30.5 -13t-12.5 -31t13 -30.5t30 -12.5v0zM633 275q-51 25 -106 25q-57 0 -106 -25q-51 -27 -80 -64q-8 -14 4 -25q5 -5 13 -4t11 8q27 36 69 56t89 20q98 0 158 -76q7 -9 17 -7t13.5 10t-2.5 18q-29 39 -80 64z" />
    <glyph glyph-name="690" unicode="&#xe690;" 
d="M853 517q-24 61 -77 115q-50 49 -114 76q-67 28 -140.5 28t-140.5 -28q-65 -27 -114 -76t-78 -115q-28 -67 -28 -140q0 -75 28 -140t77.5 -114.5t114.5 -77.5q67 -28 140.5 -28t140.5 28q66 29 114 77q52 52 77 115q29 68 29 140q0 74 -29 140v0zM377 511q32 0 44 -30
t-10.5 -52.5t-52 -10t-29.5 44.5q0 19 14.5 33.5t33.5 14.5v0zM705 182q-17 -10 -27 4q-50 67 -157 67t-156 -67q-6 -7 -15 -7q-2 0 -4 0.5t-4.5 1t-3.5 1.5q-15 13 -4 28q30 41 82 63q45 19 105 19q57 0 106 -19q50 -22 82 -63q11 -15 -4 -28v0zM666 511q20 0 34 -14
t14 -34q0 -32 -30.5 -44.5t-51.5 9.5q-20 23 -9 53t43 30z" />
    <glyph glyph-name="691" unicode="&#xe691;" 
d="M177 107v484h693v-174q25 -14 43 -32v227q0 10 -6 16t-15 6h-737q-9 0 -15 -6t-6 -16v-527q0 -8 6 -14.5t15 -6.5h402q-15 19 -26 43h-354zM487 493h-253q-12 0 -17 -10t0 -20.5t17 -10.5h253v41v0zM487 369h-253q-12 0 -17 -10t0 -20.5t17 -10.5h253q13 0 18 10.5
t0 20.5t-18 10v0zM487 246h-253q-8 0 -14 -6.5t-6 -15t6 -14t14 -5.5h253q8 0 14.5 5.5t6.5 14.5t-6 15t-15 6v0zM748 15q81 0 138.5 57t57.5 139q0 81 -57 137.5t-139 56.5q-81 0 -138 -56.5t-57 -137.5t57 -139q57 -57 138 -57v0zM735 96q-9 -9 -19.5 -9t-18.5 9l-90 88
q-12 11 -7 25.5t18.5 18.5t26.5 -5l71 -70l133 133q8 8 19 7.5t19 -7.5q8 -9 8 -19.5t-8 -18.5z" />
    <glyph glyph-name="692" unicode="&#xe692;" 
d="M936 462q-20 29 -73 36h-224l30 205q3 17 -1 34q-6 35 -39 48h-1l-2 1l-5 2.5t-7.5 2.5t-10.5 2.5t-12 1.5q-32 0 -51 -28l-179 -270h-139q-27 0 -54 -14q-49 -27 -54 -94v-310q0 -29 13 -55q28 -53 94 -53h1h502h6q11 0 25.5 4.5t33.5 15t36 33.5t26 54l97 308
q11 44 -12 76v0zM221 15q-40 6 -55 34q-7 13 -7 27v313q5 37 33 52q18 8 29 10h1h110v-436h-111zM905 400h-1l-98 -315q-12 -42 -49 -61q-18 -8 -35 -10h-343v437l189 274q15 24 34 24q6 0 10 -3q21 -11 11 -49l-40 -247h280q24 0 34 -16q11 -16 8 -34z" />
    <glyph glyph-name="693" unicode="&#xe693;" 
d="M936 260q22 31 12 75l-95 303q-9 28 -25 50t-32 33q-16 9 -32.5 15t-25.5 7t-11 1l-494 -1q-67 0 -92 -52q-14 -28 -14 -53v-306q5 -65 54 -92q26 -14 53 -14h137l175 -265q19 -28 51 -28q21 0 36 10h1q31 14 39 48q3 18 0 33l-29 202h220q49 4 72 34v0zM233 700h109
v-428h-109h-1h-2q-1 0 -26 9q-30 17 -32 52v307q0 14 7 27q15 27 54 33v0zM905 321q0 -20 -7 -33q-12 -15 -34 -16h-275l39 -243q3 -2 2 -21q0 -21 -13 -27q-8 -2 -10 -2q-6 0 -11 2t-8.5 5.5l-6.5 6.5t-5 6l-2 3l-186 269v430h337q15 0 35 -10q36 -18 48 -60l97 -309v-1z
" />
    <glyph glyph-name="694" unicode="&#xe694;" 
d="M375 358q-27 -59 -98 -81l-3 -1l-3 1q-74 13 -101 81q-4 0 -23 0.5t-23 1.5q-10 60 2.5 131.5t35.5 91.5q36 28 106 30q72 1 107 -25q27 -20 41 -95q15 -75 6 -130q-3 -2 -24 -3q-19 0 -23 -2v0zM715 262l1 -20l-12 -19l36 -155l-51 -25l-50 25l36 155l-12 19l1 20
q26 1 51 0v0zM588 675q6 0 22 2t22 2q37 0 40 -22q-29 14 -84 18v0zM714 663q99 25 112 -44q-7 19 -43 34q-33 14 -69 10v0zM850 521q6 47 1.5 83.5t-20.5 60t-51 32.5t-90 2q-28 -4 -51.5 -2t-48.5 -0.5t-39 -12.5q-54 -51 -32 -161l-7 -4l-7 -5v-8q-1 -33 8 -55t24 -29
q20 -63 54 -99q36 -37 89 -46l3 -1l3 1q57 12 91 48q33 34 51 98q15 9 24 28q8 24 8 55l-1 8l-7 5zM538 490q17 3 22 1q3 25 13 49q18 -14 42.5 -18.5t54 4.5t55.5 32l-9 -26l9 -2l11 17l-1 -12l10 -1l7 20q7 -8 19.5 -11.5t20.5 -0.5q6 -16 12 -46l7 -7q3 1 7 1h8
q0 -15 -5 -26t-12 -14l-8 -3l-3 -8q-16 -60 -44 -91q-26 -27 -72 -38q-39 8 -67 36q-31 31 -48 92l-2 9l-9 3q-7 1 -12 13q-4 12 -6 27v0zM482 277h-7l-5 -4q-47 -41 -70 -125q-14 -60 -16 -126v-19h18h563h16l2 16q7 64 -18 142q-26 78 -65 114l-6 6l-7 -1l-86 -3v-35l79 3
q31 -33 51 -95q19 -56 17 -111h-528q7 69 15 100q18 67 54 102h72v35zM368 268q21 -8 39 -18q-21 -33 -34 -74t-16 -68l-1 -23h-298q-2 16 -3.5 35t6.5 41t20 41.5t36.5 36.5t58.5 27l37 -123q55 -12 119 0l36 123v2zM356 466q-88 -15 -162 0q-6 -20 -7 -31q-3 -25 4 -53
q17 -63 82 -78q74 24 86 93q6 27 1 53q-2 12 -4 16z" />
    <glyph glyph-name="695" unicode="&#xe695;" 
d="M458 -20q-26 37 -34 47q-39 -16 -53.5 -6.5t-19.5 52.5q-20 -5 -35.5 -5.5t-26 14t-13.5 46.5q-4 0 -13 -2.5t-13 -2.5q-5 1 -16 4q-18 7 -24 16q-5 8 -5.5 22.5t4.5 20.5q20 18 24.5 35.5t-3 33.5t-26.5 34q-3 3 -3.5 10t0 13.5t-1.5 14.5q3 0 6 1l4 2q1 -2 17.5 -22.5
t26.5 -30.5q16 -16 32 -17q41 -2 41 -42q1 -13 6.5 -18.5t20.5 -9.5q11 -3 21 -11.5t14 -18.5q7 -14 14 -20.5t21 -9.5q4 -1 7.5 -2.5t7.5 -4.5t6 -5.5t6.5 -7l5.5 -5.5q4 -4 13.5 -15t13.5 -15q14 -12 36 -27q19 -13 29 -13q13 -2 24 13q2 3 -1.5 10.5t-7.5 11.5
q-6 5 -27 20.5t-32 26.5q-2 1 -3.5 4t-3 8.5t-2.5 8.5q3 -2 8 0q9 0 15 -2l104 -72q29 -22 46 0q19 26 -13 47l-106 78q-6 4 -8 12l-3 8q0 1 -1 3q0 2 -1 3q21 0 26 -5q10 -7 122 -85q0 -1 2.5 -2.5t6.5 -4t5 -3.5q27 -17 42 3q17 24 -9 44l-143 104l-15 12q-1 1 -4 17
q14 3 15 3q2 -1 22 -12l50 -36q91 -65 94 -67q33 -24 54 0q21 26 -9 56q-39 34 -239 208q-24 20 -52 11t-37 -39q-16 -62 -71 -75q-17 -5 -46 6q-4 2 -8 10.5t-4 14.5q3 21 19 87q0 2 17 53h-80q3 20 12.5 28.5t28.5 8.5q32 -4 56 0h5q62 9 79 16q63 22 137 3q1 -1 39.5 -9
t53.5 -12q6 0 13.5 -6t8.5 -10l27 -54q34 -69 81 -167q8 -15 3 -21q-8 -12 -9 -25t1 -20.5t8 -25.5q11 -22 -2 -43t-36 -29q-22 -8 -28 -29q-5 -24 -22 -32t-45 -11q-14 -37 -32.5 -46t-55.5 2q-2 1 -23 -7q-6 -2 -16.5 -8t-18.5 -9.5t-14 -1.5q-20 6 -34 -0.5t-31 -26.5
h-22v0zM211 642q8 -4 29 -15.5t25 -14.5q22 -11 11 -34q-47 -97 -125 -260q-11 -26 -36 -12q-1 0 -60 34v16l75 145l42 84l14 29l14 28h11v0zM823 642l27 -45l53 -105l61 -122q9 -18 5 -28.5t-22 -19.5l-26 -11q-6 -3 -16.5 -5t-13.5 -1q-11 5 -32 49l-107 218
q-8 16 -5 26.5t19 17.5q14 5 45 26h12z" />
    <glyph glyph-name="696" unicode="&#xe696;" 
d="M843 456l-315 -191l-316 191q-12 9 -27 5t-22 -17q-8 -12 -4.5 -26.5t16.5 -22.5l335 -202v-1h2v-1h2l1 -1h1l1 -1h1h1l1 -1h2h2h2v-1h1h1h1h1h1q1 1 2 1h2h2v1h1h1h1l1 1h1h0.5t0.5 1h1h0.5t0.5 1h2v1l334 202q13 8 16 22.5t-5 26.5q-6 13 -21 16.5t-28 -4.5z" />
    <glyph glyph-name="697" unicode="&#xe697;" 
d="M889 288q-9 -12 -23 -16t-27 4l-316 191l-316 -191q-12 -7 -26.5 -4t-22.5 16q-7 12 -3.5 27t15.5 22l335 202v1q1 0 2 1q2 0 4 2h1h1h1l1 1h2h2q1 0 2 1h1h1h1h1h1h1q0 -1 1 -1h2h1h1v-1h1h2l1 -1h1q1 0 2 -1h1q1 -1 2 -1v-1l335 -202q12 -7 15.5 -22t-3.5 -27z" />
    <glyph glyph-name="698" unicode="&#xe698;" 
d="M527 -12q-73 0 -143 29q-66 27 -117 78t-78 117q-29 69 -29 143q-2 72 28 140.5t79.5 118.5t118 79.5t141.5 27.5q77 0 142.5 -29t115.5 -78q50 -50 79 -117q29 -69 29 -142q2 -97 -48 -183t-135.5 -136t-182.5 -48v0zM527 682q-89 0 -164.5 -44t-119.5 -119t-44 -164
q-2 -87 42.5 -163.5t121.5 -121.5t164 -43q88 0 164 44t119.5 119.5t43.5 164.5t-43.5 164t-119 119t-164.5 44z" />
    <glyph glyph-name="699" unicode="&#xe699;" 
d="M899 522q-31 72 -87 128.5t-129 87.5q-75 31 -158 31q-81 0 -157 -31q-73 -31 -129 -87.5t-87 -128.5q-32 -75 -32 -157.5t32 -157.5q31 -73 87 -129t129 -86q75 -32 157.5 -32t157.5 32q72 30 128.5 86t87.5 129q30 75 30 157.5t-30 157.5v0zM888 365
q2 -97 -47.5 -181.5t-134 -134t-181.5 -47.5q-98 0 -181.5 48.5t-132.5 132.5t-49 182q-2 71 27.5 139t79 117.5t117 78.5t139.5 28q99 0 182.5 -49t132 -132.5t48.5 -181.5v0zM727 545q0 2 -2 8l-2 4l-2 3q-6 6 -15 6t-15 -6l-166 -166l-165 166q-6 6 -15 6
q-13 0 -19 -13.5t4 -22.5l166 -165l-166 -166q-9 -9 -4 -22.5t19 -13.5q3 0 5.5 1t5 2.5t4.5 2.5l165 166l166 -166q6 -6 15 -6q8 0 14.5 6.5t6.5 14.5q0 9 -6 15l-166 166l166 165q6 6 6 15z" />
    <glyph glyph-name="69c" unicode="&#xe69c;" 
d="M917 364q0 6 -4.5 12t-5.5 6l-1 1l-88 92l-286 299q-7 7 -14 7q-9 1 -17 -7l-84 -87q-17 -17 -42.5 -43.5t-34.5 -35.5l-83 -88q-134 -140 -136 -142q-7 -7 -7 -14q-1 -7 4.5 -13t13.5 -7q8 0 16 8l13 12l15 17l2 2l5 5l4 4l5 5v-49v-56v-48v-53v-213h3h3h636h3h3v142
v277l5 -5l6 -6q8 -8 18.5 -19.5t13.5 -14.5q7 -8 14 -8q9 0 14 6q6 5 6 14v0zM230 236v70v60v70q0 1 3 4l2 2l144 150l137 143q16 -17 65.5 -68.5t77.5 -80.5l139 -145l2 -2q2 -2 2 -3v-424h-273h-299v224zM373 407l101 -134h-65v-1q-17 -4 -17 -19q0 -8 5 -13.5t12 -6.5h1
h84v-30h-63q-12 0 -16.5 -9.5t0 -19.5t16.5 -10h63v-67q0 -11 9 -16t18.5 0t9.5 16v67h64q7 0 13 6t6 14.5t-5.5 13.5t-13.5 5h-64v30h85q8 0 13.5 6.5t5.5 13.5q0 15 -18 19l-1 1h-64q98 123 105 133l0.5 1t1.5 1q9 16 3 27t-19 11q-11 0 -19 -11l-25 -31t-52.5 -66.5
t-32.5 -45.5q-9 13 -56 75l-48 65q-11 14 -21 14q-9 0 -15.5 -7t-6.5 -16q0 -8 6 -16v0zM707 606l14 -15l5 -6v46h55v-102l33 -35v154q-4 16 -16 17h-88q-17 0 -17 -17v-27v-1z" />
    <glyph glyph-name="69d" unicode="&#xe69d;" 
d="M771 374h-507q-8 0 -13.5 -5.5t-5.5 -13.5t5.5 -13.5t13.5 -5.5h507q8 0 13.5 5.5t5.5 13.5t-5.5 13.5t-13.5 5.5v0zM771 220h-507q-8 0 -13.5 -6t-5.5 -13q0 -8 5.5 -14t13.5 -6h507q8 0 13.5 6t5.5 14q0 7 -5.5 13t-13.5 6v0zM359 472q19 0 19 19v171q0 7 -6 13t-13 6
q-8 0 -13.5 -5.5t-5.5 -13.5v-171q0 -8 5.5 -13.5t13.5 -5.5v0zM409 595h217v-38h-217v38zM838 595h-113v-38h113q9 0 17 -7.5t8 -17.5v-446q0 -11 -7.5 -18t-17.5 -7h-640q-11 0 -18 7t-7 18v446q0 10 7 17.5t18 7.5h112v38h-112q-27 0 -45.5 -18.5t-18.5 -44.5v-446
q0 -26 18.5 -44.5t45.5 -18.5h640q26 0 44.5 18.5t18.5 44.5v446q0 26 -18.5 44.5t-44.5 18.5v0zM676 472q7 0 13 5.5t6 13.5v171q0 7 -6 13t-13 6q-9 0 -14.5 -5.5t-5.5 -13.5v-171q0 -8 6 -13.5t14 -5.5z" />
    <glyph glyph-name="69e" unicode="&#xe69e;" 
d="M924 607q-61 5 -103 20q-3 1 -31 11q-36 11 -83 38l-1 1q-9 4 -18 10l-6 4q-3 2 -32 21l-1 1l-23 16q-10 7 -14 10l-1 1l-11 9q-39 30 -80 72q-41 -43 -80 -72l-6 -5l-5 -4l-15 -11q-1 -1 -5.5 -4t-5.5 -4q-4 -3 -12 -8l-1 -1l-32 -21q-16 -10 -23 -14l-1 -1
q-46 -26 -84 -38q-20 -8 -30 -11q-45 -15 -103 -20q0 -8 3 -64h1q9 -132 50 -252q0 -1 3 -10q0 -4 2 -4q47 -130 125.5 -219t175.5 -122q24 -8 43 -12q18 4 43 12q99 34 177.5 123t124.5 218q2 0 2 4q3 9 3 10q41 120 50 252h1q2 54 3 64v0zM522 -13l-1 1h-1h-1q0 -1 -1 -1
q-136 43 -227 198t-100 369q167 38 326 177q0 -3 3 -3l1 1l2 2q159 -139 327 -177q-9 -212 -101 -369q-91 -155 -227 -198v0zM374 421q-8 8 -18.5 8t-18.5 -8l-12 -12q-9 -9 -9 -19.5t9 -18.5l137 -135v-1l13 -13q8 -8 19.5 -8t18.5 8l239 236q17 20 0 37l-13 12
q-7 9 -18.5 9t-18.5 -9l-208 -204z" />
    <glyph glyph-name="69f" unicode="&#xe69f;" 
d="M951 349q-14 -14 -34.5 -14t-34.5 14l-11 10v-387q0 -20 -13.5 -33.5t-33.5 -13.5h-597q-21 0 -34.5 13.5t-13.5 33.5v388l-11 -11q-15 -14 -35 -14t-35 14t-14.5 33.5t15.5 32.5l391 378q15 14 35 14t34 -14l123 -119v85q0 20 14 33.5t33 13.5q20 0 34 -13.5t14 -33.5
v-176l174 -168q14 -14 14 -33t-14 -33v0zM524 693l-251 -243v-3q1 -1 1 -3v-425h503v425l0.5 2t0.5 3zM405 437q8 -11 19 -30q34 33 44 56l21 -17l-5 -6q-22 -30 -49 -54q27 -64 27 -161q0 -84 -17 -107q-11 -12 -32 -12q-17 0 -41 6q-2 18 -4 27q28 -10 44 -10q11 0 16 13
q9 23 9 87q0 24 -2 56q-28 -43 -75 -77q-6 13 -14 21q55 37 84 88q-5 23 -15 52q-29 -22 -56 -37q-10 17 -15 21q36 18 62 38q-18 34 -39 50l21 16l5 -6zM599 151q34 4 70 12q-11 25 -25 49l22 8q26 -45 48 -105l-23 -12q-6 23 -14 40q-17 -4 -38 -7.5t-37 -6t-48.5 -7
t-55.5 -7.5q-4 0 -12 -1.5t-9 -1.5l-6 29l9 -1q24 0 94 9v91h-49h-11h-10q-2 0 -8 -0.5t-9 -0.5q1 6 1 18v20v72q0 29 -1 40q22 -2 39 -2h48v34q0 23 -3 38h31q-3 -17 -3 -38v-34h55h14q8 0 24 2q-2 -22 -2 -38v-73v-12q0 -20 2 -27q-6 1 -17 1h-22h-54v-89zM574 364h-62
v-101h62v101zM666 263v101h-67v-101h67z" />
    <glyph glyph-name="6a0" unicode="&#xe6a0;" 
d="M967 285v179h-100q-13 51 -38 95l70 68l-127 127l-68 -68q-44 26 -96 40v96h-179v-96q-46 -10 -96 -40l-68 68l-127 -127l70 -68q-24 -40 -38 -95h-100v-179h103q14 -48 39 -90l-74 -74l127 -127l75 76q41 -24 89 -36v-107h179v107q46 11 89 36l75 -76l127 127l-74 74
q25 43 39 90h103zM519 500q51 0 88 -37t37 -88q0 -52 -37 -89t-89 -37q-51 0 -88 37t-37 89t37 88q37 37 89 37z" />
    <glyph glyph-name="6a1" unicode="&#xe6a1;" 
d="M339 319h94v-93h-94v93zM954 447l-400 334q-14 11 -31.5 11t-32.5 -11l-399 -334q-15 -12 -16.5 -32t11.5 -36q12 -15 32.5 -16.5t36.5 11.5l6 5v-383q0 -13 9 -21.5t22 -8.5h661q13 0 22 8.5t9 21.5v383l6 -5q14 -12 32 -12q24 0 37 17q13 16 11.5 36t-16.5 32v0z
M822 27h-116v292h-168v-292h-315v403l299 250l300 -250v-403z" />
    <glyph glyph-name="6a2" unicode="&#xe6a2;" 
d="M300 323h80v-79h-80v79zM271 622q0 13 -9.5 22t-21.5 9h-59q-13 0 -22 -9t-9 -22v-109l121 101v8zM467 166v-92h-264v344l251 213l144 -122q37 22 92 29l-209 178q-27 21 -54 0l-334 -283q-13 -11 -14.5 -28t9.5 -30q12 -13 28.5 -14.5t29.5 9.5l5 4v-326
q0 -11 7.5 -18.5t18.5 -7.5h413q-89 50 -123 144v0zM726 514q-102 0 -174 -72t-72 -174q0 -101 72.5 -173.5t173.5 -72.5q102 0 174 72t72 174q0 101 -72.5 173.5t-173.5 72.5v0zM726 80q-78 0 -133 55t-55 133t55 133t133 55q77 0 132.5 -55t55.5 -133q0 -88 -68 -144
q-52 -42 -120 -44v0zM743 226h-28q-7 -1 -8 -9v-22h-22q-9 0 -9 -8v-13v-1q2 -12 -6 -20q-7 -6 -16.5 -6t-16.5 6q-6 8 -6 17.5t6 15.5l70 70q4 4 2.5 8.5t-5.5 6t-8 -2.5l-70 -70q-18 -16 -10.5 -38.5t27.5 -28t39 10.5q12 13 11 33v4h22q3 0 5.5 2.5t2.5 5.5v22h23
q5 0 6 3l10 10l-8 3l-8 4zM715 308q0 -31 22 -53.5t54 -22.5t54 22.5t22 53.5q0 33 -22 55t-54 22t-54 -22t-22 -55v0zM796 347q6 7 16.5 7t17.5 -7t7 -17q0 -11 -7 -17q-7 -7 -17.5 -7t-16.5 7q-14 17 0 34z" />
    <glyph glyph-name="6a3" unicode="&#xe6a3;" 
d="M901 496l-238 58q-10 2 -17 1v189q22 17 17 44q-3 20 -18.5 31.5t-34.5 8.5l-452 -70q-19 -3 -30.5 -19t-8.5 -35q1 -18 17 -30v-708q0 -12 9 -21t21 -9h451h267q12 0 21 9t9 21v443q18 12 22 30q5 18 -6 35.5t-29 21.5v0zM195 667l393 61v-236v-496h-150v148h-93v-148
h-150v671zM854 -4h-76v76h-55v-76h-77v458l208 -46v-412zM345 643h93v-90h-93v90zM345 481h93v-90h-93v90zM345 318h93v-89h-93v89zM723 374h55v-53h-55v53zM723 278h55v-53h-55v53zM723 182h55v-53h-55v53z" />
    <glyph glyph-name="6a4" unicode="&#xe6a4;" 
d="M141 780q16 16 51 26t63 7q28 -1 28 -11q2 -11 49 -123q49 -111 49 -122q0 -15 -35 -52q-21 -22 -47 -49q-6 -6 10.5 -34t46.5 -65l71 -84l84 -71q38 -31 65.5 -47t34.5 -10q83 83 101 82q8 0 173 -70q61 -26 72 -28q9 2 10 -27t-8 -65.5t-25 -50.5q-30 -32 -96 -49
q-45 -11 -92 -8q-52 2 -124.5 31.5t-146.5 81.5q-49 29 -149 129h-1q-98 98 -128 150q-53 72 -82 145t-33 125q-1 49 9 92q19 66 50 97z" />
    <glyph glyph-name="6a5" unicode="&#xe6a5;" 
d="M948 229h-35h-139q-29 0 -49.5 20.5t-20.5 50t20.5 50t49.5 20.5h139h35q15 0 25 -10.5t10 -24.5v-70q0 -16 -10 -26t-25 -10v0zM739 300q0 -15 10.5 -25t24.5 -10q23 0 32.5 21t-8.5 38q-15 17 -37 7.5t-22 -31.5v0zM670 335v-70q0 -30 20 -50.5t49 -20.5h174v-140
q0 -30 -19.5 -50.5t-49.5 -20.5h-696q-29 0 -49.5 20.5t-20.5 50.5v420v71v105q0 45 30.5 75.5t74.5 30.5h521h70h104q15 0 25 -10t10 -25t-10 -25.5t-25 -10.5h-104h-70h-521q-15 0 -25 -10t-10 -25q0 -14 10 -24.5t25 -10.5h556h35h70q30 0 49.5 -20t19.5 -50v-35v-36v-35
v-35h-174q-29 0 -49 -20t-20 -49z" />
    <glyph glyph-name="6a6" unicode="&#xe6a6;" 
d="M563 431q-40 11 -75 11q-27 0 -54 -6l-10 -2l-11 -3v230h-199v-114l97 -171q-45 -37 -69.5 -90t-24.5 -113q0 -112 79 -190q79 -79 192 -79q111 0 190.5 79t79.5 190q0 64 -28.5 120t-78.5 95l110 156v117h-198v-230zM611 295q51 -51 51 -123q0 -71 -51 -122
q-52 -50 -123.5 -50t-122.5 50q-51 51 -51 122q0 72 51 123t123 51t123 -51v0zM137 790v-78h701v78h-701zM482 334l-35 -106h-111q-5 0 -6 -4q0 -3 2 -7l90 -65l-34 -106q-2 -4 2 -7q4 -1 7 0l91 66l91 -66q1 -2 7 0q3 3 2 7l-35 106l91 65q3 3 2 7q-2 4 -6 4h-112l-34 106
q-2 4 -6.5 4t-5.5 -4z" />
    <glyph glyph-name="6a7" unicode="&#xe6a7;" 
d="M514 822q-120 0 -222 -59t-161 -161t-59 -223q0 -90 35 -171.5t94.5 -140.5t141 -94t171.5 -35t172 34.5t141.5 93.5t94.5 141t35 172q0 121 -59.5 223t-161.5 161t-222 59v0zM431 361q-16 -7 -55 -22v-161q0 -22 -11.5 -29t-46.5 -7h-30q-1 17 -7 33q26 -3 44 -3
q12 0 15.5 3t3.5 12v139q-4 -1 -11 -3t-17 -5t-18 -6l-22 -9l-9 36q32 5 77 21v115h-33h-21q-8 0 -18 -2v35q17 -3 40 -3h32v49q0 33 -4 53h40q-4 -21 -4 -52v-50h21q12 0 36 2v-34q-18 2 -36 2h-21v-104q23 8 57 23zM713 170q-9 -12 -31 -17q-20 -5 -98 -5q-69 0 -86 7
q-18 8 -18 37v196q0 15 -2 41q20 -2 36 -2h128q17 0 41 2q-2 -12 -2 -43q-3 -79 -13 -98q-9 -20 -49 -20q-5 0 -18 1.5t-19 1.5q0 14 -5 32q28 -5 42 -5q12 0 16.5 5t7.5 22q4 24 4 73h-136v-196q0 -16 13 -19q14 -3 80 -3q44 0 57 2t22 9q8 9 11 22t4 45q15 -9 34 -14
q-5 -56 -19 -74v0zM738 399q-43 30 -56.5 41t-34.5 36q-23 25 -47 61q0 1 -2.5 6t-6.5 9q0 1 -1 3.5t-3.5 6t-3.5 5.5q-31 -52 -60 -87q-15 -17 -17 -20l-8 -8q-1 -1 -8.5 -7.5t-11.5 -9.5l-12 -10l-35 -26q-11 18 -22 29q34 19 53 34t38 39q32 38 71 117l34 -13l-5 -8
q42 -69 55 -83q22 -27 41 -41.5t64 -43.5q-16 -15 -22 -30z" />
    <glyph glyph-name="6a8" unicode="&#xe6a8;" 
d="M510 814q-172 0 -300 -114q-123 -109 -148 -273q-5 -36 -5 -66q0 -92 36 -175.5t96.5 -144.5t144.5 -96.5t176 -35.5t176 35.5t144.5 96.5t96.5 144.5t36 175.5t-36 176t-96.5 144.5t-144.5 96.5t-176 36v0zM510 -51q-171 0 -292 120.5t-121 291.5q-1 82 32 159t89.5 133
t133.5 89.5t158 31.5q82 2 159 -31.5t133 -89.5t89.5 -133t31.5 -159q0 -161 -109 -278q-104 -115 -259 -131q-22 -3 -45 -3v0zM186 128q94 68 153 64l4 -1q0 3 49 52l16 15l6 37q-9 -3 -14.5 12.5t-7.5 49.5q-16 -3 -26.5 14t-14 36.5t-3.5 37.5v12q0 7 4 11t8 4h5l-6 68
q-4 36 8 58t26 28l4 3q-1 13 17 21q2 3 50 29l15 7v-5q5 0 13 2l8 4q4 1 9.5 5t6.5 4l1 1q26 -3 49.5 -15.5t33.5 -25.5l9 -11q22 -4 37.5 -15.5t22 -26t9 -24.5t2.5 -19v-4v-84q11 5 12 -24l-1 -44q-1 -19 -11.5 -30.5t-21.5 -11.5l-11 1v-16q3 -16 -2 -33t-13 -27l-6 -8
v-36q1 0 4 -3l5 -5l2 -3l38 -41q28 -17 201 -89l4 -1q83 118 83 260q0 92 -36 176t-96.5 144.5t-144.5 96.5t-176 36q-172 0 -300 -114q-123 -109 -148 -273q-5 -36 -5 -66q0 -132 70 -241q27 15 50 9zM535 20q6 -46 27 -68l3 23q2 7 14 48q10 30 26 55l7 13q7 11 13.5 51.5
t5.5 86.5l-3 -5q-3 -6 -7 -11l-12 -18q-43 -56 -79 -71l43 -26l-3 -1q-39 -39 -35 -77v0zM489 -90q4 0 11 -0.5t10 -0.5q14 0 21 1h-42zM418 240l-1 -0.5t-2.5 -1t-3.5 -2.5t-3.5 -5t-3 -6.5t-2.5 -9.5t-1 -13.5t1.5 -18t4.5 -22.5l70 -194q-4 63 16 85v21q-11 14 -11 21
q27 24 37 30q-75 56 -96 96q-6 13 -5 20z" />
    <glyph glyph-name="6a9" unicode="&#xe6a9;" 
d="M744 323q-55 0 -101.5 -29t-71.5 -78q-73 37 -129.5 98t-88.5 138q55 21 88.5 70.5t33.5 109.5q0 80 -57 137t-137 57q-68 0 -122 -44q-53 -44 -67 -110h-3q-1 -9 -1 -29v-11v-10q2 -130 50.5 -250t130.5 -210.5t195.5 -149.5t240.5 -72q17 -4 39 -4q41 0 75 15l-5 5l3 4
q8 13 4.5 28t-17.5 25l-3 1q-21 12 -43 -1l-1 1q-1 0 -3.5 -0.5t-4.5 -0.5h-4q-17 0 -32 5q-80 9 -146 33q-123 48 -217.5 141t-142.5 216q-38 94 -40 209q-1 4 -1 13q0 48 34 82t82 34q49 0 82.5 -34t33.5 -82q0 -42 -27.5 -75t-69.5 -40q-14 -1 -25 -12t-11 -26l1 -4
q0 -19 13 -29l-4 -6h1q37 -98 108.5 -176t166.5 -123v-1v1l9 4q6 -9 12 -13l4 -1q14 -8 29 -4t24 16q7 12 5 21q11 37 41.5 59.5t69.5 22.5q48 0 82 -34t34 -82q0 -19 -6 -37l1 -1l-1 -2q-8 -13 -5 -27.5t17 -21.5l3 -2q20 -12 39 2l4 -4q25 42 25 94q0 90 -69 148
q-55 45 -125 46z" />
    <glyph glyph-name="6aa" unicode="&#xe6aa;" 
d="M960 -76h-892v891h892v-891zM129 -15h770v769h-770v-769zM535 357v-216h-27v216h-223v26h223v216h27v-216h208v-26h-208zM555 121h-68v215h-222v68h222v216h68v-216h208v-68h-208v-215z" />
    <glyph glyph-name="6ab" unicode="&#xe6ab;" 
d="M523 -79h1q88 -1 170.5 36t142.5 98.5t95.5 145t33.5 172.5q0 91 -36 174.5t-96.5 144.5t-144.5 96.5t-176 35.5t-175.5 -35.5t-144.5 -96t-96.5 -144t-35.5 -175.5q0 -35 6 -69l2 -17h1l4 -22l2 -8l2 -7l1 -1l4 -15v-1h1q0 -4 1 -5v-1q0 -1 1.5 -4.5t2.5 -5.5l2 -4v-2
q1 -8 6 -13v-1v-1q2 -2 2 -4l1 -1q0 -3 1 -4l2 -4v-1q1 0 1 -1l2 -4l1 -1l2 -4q1 -1 1 -4q1 0 1 -1t1 -2v-2l2 -2l2 -4l1 -1q0 -2 1.5 -4.5t2.5 -2.5l1 -2l2 -3q0 -1 1 -2v-1l4 -5q1 -1 1 -3l1 -1q58 -94 152 -149q97 -58 209 -62h5h5h1h1h3h3h3h3h3h2h2v0zM172 142l17 -2
q98 67 154 63h3q0 3 49 52l16 15l6 37q-9 -3 -14 12.5t-8 49.5q-16 -4 -26.5 13t-14 37t-3.5 37v12q0 15 15 15h2l-6 68q-4 36 8 58t26 28l4 3q-1 14 17 21q2 3 50 29l15 7v-5q5 0 13 2l8 4q4 2 9.5 5.5t6.5 3.5l1 1q26 -3 49.5 -15.5t33.5 -25.5l9 -11q22 -4 38 -15.5
t22 -25.5t8.5 -24.5t2.5 -19.5v-4v-84q11 5 12 -24l-1 -43q-4 -42 -41 -42l-3 1v-16q3 -17 -2 -34t-13 -26l-6 -8v-36q1 0 4 -3l5 -5l2 -3l38 -41q20 -13 167 -75q-50 -68 -122.5 -111t-157.5 -53q11 79 43 125l7 13q7 11 13.5 52t5.5 87q-4 -8 -14 -23q-11 -17 -36 -43
q-25 -29 -51 -39l43 -26l-12 -11q-9 -8 -18.5 -29t-7.5 -39l1 -4.5t3 -13t4.5 -17t7.5 -18t10 -14.5q-22 -4 -51 -4q-104 0 -194 48.5t-147 133.5v0zM522 136q-31 25 -36 29q-67 59 -65 87l-1 -0.5t-2.5 -1.5t-3.5 -2.5t-3.5 -4.5t-3 -7t-2.5 -10t-1 -13.5t1.5 -17.5
t4.5 -22l70 -195q-4 63 16 85v21q-11 14 -11 21l7 6z" />
    <glyph glyph-name="6ac" unicode="&#xe6ac;" 
d="M942 643l-76 77l-83 83q-22 2 -25 -13l-44 -190l-17 -17h-600v-636h635v617l8 9l189 46q13 4 13 22v2zM671 8h-512v514h477l-214 -214q-9 -12 0 -24l-1 -1l2 -1l1 -1h1q7 -5 20 -2l3 2l223 222v-495zM767 625l28 104l40 -40l35 -35zM418 274l-1 2l-2 1q-19 18 -5 30
l74 75l-62 62l-87 -87q-15 -15 -33 -43q-53 -88 1 -148l2 -2l1 -1q10 -10 21.5 -15.5t21.5 -8.5t22 -2t21.5 2.5t21.5 6.5t19 8.5t18 10.5t15.5 10t13 9.5t9.5 7.5l6 6l87 87l-59 59l-76 -74q-13 -13 -29 4z" />
    <glyph glyph-name="6ad" unicode="&#xe6ad;" 
d="M866 346l-11 10v-387q0 -20 -14 -33.5t-33 -13.5h-599q-19 0 -33 13.5t-14 33.5v388l-11 -11q-14 -14 -34.5 -14t-35.5 13q-14 14 -14 33.5t14 33.5l392 378q15 14 35 14t35 -14l123 -119v85q0 18 14 32.5t33 14.5t33.5 -14.5t14.5 -32.5v-176l174 -168q14 -14 14 -33.5
t-15 -33.5q-14 -13 -34 -13t-34 14v0zM508 690l-253 -243q2 -2 2 -6v-425h504v425v3v2zM345 352q-13 0 -31 -2v28q14 -3 32 -3h25v40v16q0 17 -3 26h33q-3 -12 -3 -42v-40h16q14 0 28 2v-27q-18 2 -28 2h-16v-84q15 5 45 19l-2 -27q-8 -4 -43 -18v-128q0 -18 -9.5 -23.5
t-37.5 -5.5h-24q-3 20 -6 27q21 -3 35 -3q9 0 12 2.5t3 9.5v111q-3 -1 -36 -11l-17 -7l-8 29q27 4 61 16v93h-26zM580 455q0 -1 -1.5 -3.5l-1.5 -2.5q25 -45 43 -67q24 -28 67 -58l18 -10q-14 -14 -18 -24l-45 32q-10 9 -28 30q-26 30 -38 49l-6 12q-4 4 -7 12
q-24 -42 -48 -70q-21 -24 -74 -65q-9 16 -17 23q44 26 72 59q31 40 58 94zM610 313q11 0 33 2q0 -1 -1 -2v-7q0 -1 -0.5 -9t-0.5 -17q-1 -57 -10 -79q-7 -15 -39 -15q-6 0 -30 2q0 14 -4 26q22 -5 33 -5q10 0 13.5 4t6.5 19q3 21 3 58h-108v-157q0 -13 10 -16q14 -2 64 -2
q34 0 45 1.5t18 7.5q10 11 12 54q10 -6 27 -12q-3 -44 -15 -59q-10 -10 -25 -14q-27 -3 -78 -3q-55 0 -70 6q-14 6 -14 29v157q0 23 -1 33q16 -2 29 -2h102zM351 77l-24 1h-7v7q-1 14 -6 24l-5 11l13 -1q16 -3 34 -3q7 0 8 1v4v101l-27 -8l-16 -7l-8 -4l-11 46l8 1
q19 1 54 14v81h-19q-14 0 -30 -2l-8 -1v44l9 -1q14 -3 30 -3h18v33q0 21 -3 41l-1 8h49l-1 -8q-3 -12 -3 -41v-33h9q13 0 27 2l8 1v-43l-8 1q-16 2 -27 2h-9v-67q6 2 15 6t13 6q-10 14 -14 18l-7 7l8 5q46 26 71 57q28 34 56 92l3 6l40 -17l-4 -7q0 -1 -1 -2q26 -46 41 -62
q18 -22 34 -35.5t48 -31.5l8 -4l-6 -7q-13 -10 -17 -22l-3 -7l-7 4l-34 24q-1 -5 -1 -28q-1 -61 -11 -82q-9 -19 -45 -19q-5 0 -31 2l-6 1v6q0 12 -4 24l-4 11l12 -2q16 -4 24 -4h8q7 0 9 2t4 14q3 39 3 50h-94v-150q0 -5 0.5 -6t4.5 -2q8 -3 62 -3q51 0 58 7q9 9 10 49
l1 13l10 -7q9 -7 25 -11l6 -1l-1 -6q-4 -47 -16 -63h-1q-10 -12 -28 -17q-33 -3 -80 -3q-55 0 -72 6q-19 7 -19 36v157q0 16 -1 23l-22 -17l-2 -33l-4 -1q-12 -7 -39 -17v-123q0 -30 -28 -35zM333 92h18q27 0 33.5 4.5t6.5 17.5v133l4 2l40 16v10q-17 -8 -35 -14l-9 -3v101
h23q16 0 21 -1v11q-5 -1 -21 -1h-23v47q0 26 1 35h-15q0 -4 1 -15.5t1 -19.5v-47h-33q-6 0 -13.5 0.5t-11.5 0.5v-11q7 1 24 1h34v-105l-5 -2q-33 -11 -55 -15l4 -13l10 3v1q33 10 36 11l10 4v-122q0 -19 -23 -19h-5h-4h-4q-2 0 -5.5 0.5t-6.5 0.5zM487 307v-12v-13v-157
q0 -8 2 -14l2 -4q1 -3 6 -5q14 -5 67 -5q50 0 77 3q14 5 20 12q10 12 13 49l-12 5q-3 -36 -14 -47h-1q-7 -7 -20 -9t-47 -2q-54 0 -66 3q-15 4 -15 22v165h122v-8v-24q0 -2 -3 -35q-3 -16 -8.5 -22.5t-18.5 -6.5q-4 0 -11.5 1t-11.5 1l0.5 -2.5t0.5 -3.5v-3q18 -2 23 -2
q27 0 32 11q9 21 10 76q0 22 1 27q-4 -1 -12 -1h-13h-102h-12q-6 0 -9 1v0zM435 312q4 -4 8 -11l28 21v1h1q17 14 38 37q18 21 47 68l6 11l6 -11l3 -6l3 -5h1l3 -6l4 -6q11 -21 36 -49q15 -18 26.5 -27.5t38.5 -27.5l9 12q-24 15 -33.5 21.5t-22 18t-22.5 25.5
q-22 25 -45 68l-2 3l2 2l-13 6q-28 -58 -55 -89q-29 -36 -67 -56v0zM491 321q5 -1 17 -1h102q6 0 13 0.5t10 0.5q-6 5 -25 26q-18 21 -30 39l-8 12q-2 2 -3 5t-4 6v1q-17 -29 -43 -60q-22 -24 -29 -29z" />
    </font>
</defs>
</svg>
